<?xml version="1.0" encoding="UTF-8" standalone="no"?>
<!-- Created with Inkscape (http://www.inkscape.org/) -->

<svg
   xmlns:dc="http://purl.org/dc/elements/1.1/"
   xmlns:cc="http://creativecommons.org/ns#"
   xmlns:rdf="http://www.w3.org/1999/02/22-rdf-syntax-ns#"
   xmlns:svg="http://www.w3.org/2000/svg"
   xmlns="http://www.w3.org/2000/svg"
   xmlns:sodipodi="http://sodipodi.sourceforge.net/DTD/sodipodi-0.dtd"
   xmlns:inkscape="http://www.inkscape.org/namespaces/inkscape"
   width="200"
   height="200"
   id="svg2"
   version="1.1"
   inkscape:version="0.48.2 r9819"
   style="display:inline"
   sodipodi:docname="Music-doubleflat.svg">
  <defs
     id="defs4" />
  <sodipodi:namedview
     id="base"
     pagecolor="#ffffff"
     bordercolor="#666666"
     borderopacity="1.0"
     inkscape:pageopacity="0.0"
     inkscape:pageshadow="2"
     inkscape:zoom="1.9525"
     inkscape:cx="-62.561692"
     inkscape:cy="148.12591"
     inkscape:document-units="px"
     inkscape:current-layer="layer2"
     showgrid="false"
     fit-margin-top="0"
     fit-margin-left="0"
     fit-margin-right="0"
     fit-margin-bottom="0"
     inkscape:window-width="1680"
     inkscape:window-height="990"
     inkscape:window-x="0"
     inkscape:window-y="0"
     inkscape:window-maximized="1" />
  <metadata
     id="metadata7">
    <rdf:RDF>
      <cc:Work
         rdf:about="">
        <dc:format>image/svg+xml</dc:format>
        <dc:type
           rdf:resource="http://purl.org/dc/dcmitype/StillImage" />
        <dc:title />
      </cc:Work>
    </rdf:RDF>
  </metadata>
  <g
     inkscape:groupmode="layer"
     id="layer2"
     inkscape:label="notes">
    <g
       transform="translate(213.58333,102.33333)"
       id="g2994">
      <path
         inkscape:connector-curvature="0"
         id="path2855"
         d="m -113.58333,47.66667 -100,0 0,-2 0,-2 100,0 100.000003,0 0,2 0,2 -100.000003,0 z"
         style="opacity:0.25;fill:#000000" />
      <path
         inkscape:connector-curvature="0"
         id="path2853"
         d="m -113.58333,23.666667 -100,0 0,-2 0,-2 100,0 100.000003,0 0,2 0,2 -100.000003,0 z"
         style="opacity:0.25;fill:#000000" />
      <path
         inkscape:connector-curvature="0"
         id="path2851"
         d="m -113.58333,-0.33333304 -100,0 0,-1.99999996 0,-2 100,0 100.000003,0 0,2 0,1.99999996 -100.000003,0 z"
         style="opacity:0.25;fill:#000000" />
      <path
         inkscape:connector-curvature="0"
         clip-path="none"
         id="path2849"
         d="m -113.58333,-24.333333 -100,0 0,-2 0,-2 100,0 100.000003,0 0,2 0,2 -100.000003,0 z"
         style="opacity:0.25;fill:#000000" />
      <g
         transform="translate(36,-66.5)"
         id="g3714">
        <path
           inkscape:connector-curvature="0"
           id="path2847"
           style="opacity:0.25;fill:#000000;fill-opacity:1"
           d="m -149.58333,18.166667 -100,0 0,-2 0,-2 100,0 100.000003,0 0,2 0,2 -100.000003,0 z" />
      </g>
    </g>
    <path
       inkscape:connector-curvature="0"
       style="font-size:medium;font-style:normal;font-variant:normal;font-weight:normal;font-stretch:normal;text-indent:0;text-align:start;text-decoration:none;line-height:normal;letter-spacing:normal;word-spacing:normal;text-transform:none;direction:ltr;block-progression:tb;writing-mode:lr-tb;text-anchor:start;baseline-shift:baseline;color:#000000;fill:#000000;fill-opacity:1;stroke:none;stroke-width:1.5;marker:none;visibility:visible;display:inline;overflow:visible;enable-background:accumulate;font-family:Sans;-inkscape-font-specification:Sans"
       d="m 134.65908,51.9873 0,74.57327 c -3.618,-2.72682 -9.81627,-3.04969 -15.77084,-0.37549 -7.6893,3.45329 -12.01542,10.53917 -9.63775,15.83344 2.37769,5.29428 10.52228,6.83273 18.21159,3.37946 0.48057,-0.21582 0.986,-0.44542 1.43939,-0.6884 5.9506,-3.18919 9.46833,-8.62977 8.76159,-13.26755 l 0,-79.45473 z"
       id="path11058"
       sodipodi:nodetypes="ccssscccc" />
    <path
       inkscape:connector-curvature="0"
       id="text857"
       d="m 84.845332,126.06102 c -0.144593,0.0758 -0.276027,0.18688 -0.394297,0.33297 -0.118272,0.14609 -0.197155,0.29208 -0.236544,0.43807 0.02086,0.36219 0.119777,1.40776 0.297869,3.13676 0.1782,1.72903 0.312529,2.80967 0.403075,3.24191 0.151879,0.61917 0.619169,0.92291 1.401903,0.91125 0.642505,0.004 1.285078,0.0659 1.927614,0.18398 0.642505,0.11827 1.214985,0.26727 1.717331,0.44686 0.294978,0.11392 0.598728,0.27165 0.911255,0.47318 0.312527,0.20154 0.546173,0.39429 0.700943,0.57828 l 0.210302,0.2103 -0.280417,0.21031 c -0.509676,0.49651 -1.225217,0.88792 -2.146674,1.17409 -0.921426,0.28621 -1.934915,0.43229 -3.040375,0.43809 -0.782713,-0.0119 -1.250027,0.29207 -1.401903,0.91125 -0.09074,0.43517 -0.224875,1.52748 -0.403075,3.27694 -0.1782,1.74945 -0.277424,2.80672 -0.297867,3.17182 0.04786,0.15329 0.162149,0.3198 0.341746,0.4994 0.179599,0.1796 0.346133,0.29349 0.499403,0.34175 0.395695,-0.023 1.461776,-0.13432 3.198096,-0.33297 1.73631,-0.19864 2.819871,-0.34464 3.250666,-0.43808 0.344639,-0.0878 0.58407,-0.26285 0.718495,-0.52573 0.134323,-0.26287 0.198634,-0.7185 0.192773,-1.36686 0.03691,-0.53152 0.103697,-1.04559 0.201537,-1.54209 0.09774,-0.49651 0.217589,-0.94048 0.359199,-1.3318 0.113889,-0.33149 0.27164,-0.66734 0.473178,-1.00764 0.201538,-0.34025 0.394297,-0.58855 0.578284,-0.74472 l 0.210303,-0.2103 0.210302,0.2103 c 0.183982,0.15627 0.376746,0.40447 0.578283,0.74472 0.201538,0.34026 0.359197,0.67612 0.473179,1.00763 0.141609,0.3914 0.26136,0.83526 0.359196,1.33179 0.09774,0.49652 0.165053,1.01052 0.201537,1.54211 -0.0058,0.64838 0.05885,1.10399 0.192773,1.36686 0.134323,0.26286 0.373855,0.43806 0.718494,0.52572 0.430795,0.0937 1.514328,0.23943 3.250674,0.43808 1.73629,0.19862 2.80233,0.30954 3.19809,0.33297 0.15329,-0.048 0.31981,-0.16215 0.4994,-0.34174 0.17961,-0.1796 0.29348,-0.34615 0.34175,-0.49941 -0.0209,-0.36509 -0.11978,-1.42236 -0.29787,-3.17182 -0.1782,-1.74946 -0.31252,-2.84177 -0.40307,-3.27695 -0.15188,-0.61917 -0.61917,-0.92291 -1.40191,-0.91124 -0.64259,-0.004 -1.28509,-0.0659 -1.92761,-0.18399 -0.642514,-0.11827 -1.215008,-0.26725 -1.717345,-0.44686 -0.294975,-0.11392 -0.598728,-0.27163 -0.911255,-0.47317 -0.312527,-0.20153 -0.546173,-0.39429 -0.700941,-0.57829 l -0.210302,-0.2103 0.280415,-0.21031 c 0.509676,-0.49649 1.225198,-0.88791 2.14666,-1.17409 0.921438,-0.2862 1.934918,-0.43229 3.040398,-0.43807 0.78271,0.0119 1.25,-0.29209 1.4019,-0.91126 0.0907,-0.43518 0.22487,-1.52749 0.40307,-3.27695 0.17811,-1.74945 0.27744,-2.80672 0.29787,-3.17181 -0.0478,-0.15338 -0.16215,-0.3198 -0.34174,-0.49941 -0.1796,-0.1796 -0.34613,-0.29347 -0.4994,-0.34175 -0.3958,0.023 -1.46181,0.13433 -3.1981,0.33297 -1.736337,0.19864 -2.819899,0.34464 -3.250675,0.43809 -0.344639,0.0878 -0.58417,0.26286 -0.718495,0.52573 -0.134323,0.26286 -0.198634,0.71849 -0.192747,1.36686 -0.0369,0.53161 -0.10373,1.04558 -0.201537,1.54209 -0.09774,0.49652 -0.217589,0.94047 -0.359196,1.33182 -0.11389,0.33146 -0.271643,0.66732 -0.473181,1.0076 -0.201537,0.34026 -0.394297,0.58856 -0.578284,0.74472 l -0.210302,0.2103 -0.210303,-0.2103 c -0.183981,-0.15627 -0.376749,-0.40446 -0.578283,-0.74472 -0.201538,-0.34025 -0.359198,-0.67611 -0.473178,-1.00763 -0.141715,-0.39131 -0.26136,-0.83526 -0.359199,-1.33181 -0.09774,-0.4965 -0.165026,-1.01053 -0.201537,-1.54209 0.0058,-0.64838 -0.05885,-1.10399 -0.192773,-1.36686 -0.134323,-0.26286 -0.373856,-0.43808 -0.718495,-0.52572 -0.356302,-0.0937 -1.378547,-0.23953 -3.066671,-0.43809 -1.688124,-0.19863 -2.745389,-0.30953 -3.171807,-0.33297 -0.140211,0.0119 -0.280418,0.0588 -0.420526,0.14022 l 0,0 z"
       style="font-size:7.02919579px;font-family:Emmentaler" />
  </g>
</svg>
