<?xml version="1.0" encoding="UTF-8" standalone="no"?>
<!-- Created with Inkscape (http://www.inkscape.org/) -->

<svg
   xmlns:dc="http://purl.org/dc/elements/1.1/"
   xmlns:cc="http://creativecommons.org/ns#"
   xmlns:rdf="http://www.w3.org/1999/02/22-rdf-syntax-ns#"
   xmlns:svg="http://www.w3.org/2000/svg"
   xmlns="http://www.w3.org/2000/svg"
   xmlns:sodipodi="http://sodipodi.sourceforge.net/DTD/sodipodi-0.dtd"
   xmlns:inkscape="http://www.inkscape.org/namespaces/inkscape"
   id="svg2"
   version="1.1"
   inkscape:version="0.47 r22583"
   width="600"
   height="299.53152"
   sodipodi:docname="Music-neutralclef.png">
  <metadata
     id="metadata8">
    <rdf:RDF>
      <cc:Work
         rdf:about="">
        <dc:format>image/svg+xml</dc:format>
        <dc:type
           rdf:resource="http://purl.org/dc/dcmitype/StillImage" />
        <dc:title></dc:title>
      </cc:Work>
    </rdf:RDF>
  </metadata>
  <defs
     id="defs6">
    <inkscape:perspective
       sodipodi:type="inkscape:persp3d"
       inkscape:vp_x="0 : 0.5 : 1"
       inkscape:vp_y="0 : 1000 : 0"
       inkscape:vp_z="1 : 0.5 : 1"
       inkscape:persp3d-origin="0.5 : 0.33333333 : 1"
       id="perspective10" />
  </defs>
  <sodipodi:namedview
     pagecolor="#ffffff"
     bordercolor="#666666"
     borderopacity="1"
     objecttolerance="10"
     gridtolerance="10"
     guidetolerance="10"
     inkscape:pageopacity="0"
     inkscape:pageshadow="2"
     inkscape:window-width="876"
     inkscape:window-height="564"
     id="namedview4"
     showgrid="false"
     inkscape:zoom="0.84852814"
     inkscape:cx="238.31795"
     inkscape:cy="170.07695"
     inkscape:window-x="0"
     inkscape:window-y="33"
     inkscape:window-maximized="0"
     inkscape:current-layer="svg2" />
  <g
     id="g2830"
     transform="matrix(2.9984385,0,0,2.9984385,939.96252,-36.843729)">
    <path
       id="path2818"
       d="m -178.48401,62.287638 0,-41 13.5,0 13.5,0 0,41 0,41.000002 -13.5,0 -13.5,0 0,-41.000002 z m 23,0 0,-33 -9.5,0 -9.5,0 0,33 0,33 9.5,0 9.5,0 0,-33 z m -120,0 0,-24 7,0 7,0 0,24 0,24 -7,0 -7,0 0,-24 z m 29,0 0,-24 7,0 7,0 0,24 0,24 -7,0 -7,0 0,-24 z"
       style="fill:#000000" />
    <rect
       ry="0"
       y="12.287639"
       x="-313.48401"
       height="3.958333"
       width="200"
       id="rect2820"
       style="opacity:0.3;fill:#000000;fill-opacity:1;stroke:none" />
    <rect
       style="opacity:0.3;fill:#000000;fill-opacity:1;stroke:none"
       id="rect2822"
       width="200"
       height="3.958333"
       x="-313.37985"
       y="36.35014"
       ry="0" />
    <rect
       ry="0"
       y="60.308475"
       x="-313.37985"
       height="3.958333"
       width="200"
       id="rect2824"
       style="opacity:0.3;fill:#000000;fill-opacity:1;stroke:none" />
    <rect
       style="opacity:0.3;fill:#000000;fill-opacity:1;stroke:none"
       id="rect2826"
       width="200"
       height="3.958333"
       x="-313.37985"
       y="84.266808"
       ry="0" />
    <rect
       ry="0"
       y="108.22514"
       x="-313.37985"
       height="3.958333"
       width="200"
       id="rect2828"
       style="opacity:0.3;fill:#000000;fill-opacity:1;stroke:none" />
  </g>
</svg>
