<?xml version="1.0" encoding="utf-8"?>
<!-- Generator: Adobe Illustrator 15.1.0, SVG Export Plug-In . SVG Version: 6.00 Build 0)  -->
<!DOCTYPE svg PUBLIC "-//W3C//DTD SVG 1.1//EN" "http://www.w3.org/Graphics/SVG/1.1/DTD/svg11.dtd">
<svg version="1.1" id="Layer_1" xmlns="http://www.w3.org/2000/svg" xmlns:xlink="http://www.w3.org/1999/xlink" x="0px" y="0px"
	 width="61px" height="75px" viewBox="0 0 61 75" enable-background="new 0 0 61 75" xml:space="preserve">
<g>
	<path d="M31.4,32c0.5-0.1,0.9-0.1,1.4-0.1c2.3,0,4.2,0.9,5.7,2.7c1.4,1.7,2.1,3.7,2.1,6.1c0,3.7-1.9,6.5-5.8,8.4l1.4,7.4
		c0.1,0.4,0.1,1,0.1,1.7c0,4-1.9,6.3-5.8,6.7C29,65,27.5,64.6,26,63.6c-1.5-1-2.4-2.4-2.5-3.9c-0.1-1.1,0.2-2.1,0.8-3
		c0.7-1,1.5-1.6,2.6-1.7c1-0.1,1.8,0.2,2.6,0.9c0.7,0.7,1.1,1.6,1.2,2.6c0,0.9-0.3,1.8-0.9,2.4c-0.6,0.7-1.4,1-2.4,1
		c-0.1,0-0.3,0-0.4,0c0,0.6,0.5,1,1.3,1.3c0.7,0.3,1.4,0.4,2,0.3c3.3-0.4,5-2.2,5.1-5.4c0-0.7-0.1-1.6-0.3-2.7l-1.2-5.8
		c-1.2,0.3-2.3,0.5-3.4,0.5c-3.4,0-6.2-1.4-8.6-4.1c-2.2-2.6-3.3-5.6-3.3-9c0-2.9,1.1-5.8,3.2-8.8c1-1.4,3.1-3.8,6.4-7.1
		c-0.7-2.8-1.1-5.5-1.1-8c0-2.4,0.4-4.7,1.1-7c1-2.9,2.4-4.4,4-4.4c1.1,0,2.1,1.4,3.2,4.1c0.9,2.4,1.3,4.2,1.3,5.6
		c0,2.5-0.7,5.1-1.9,7.8c-1.2,2.7-2.7,4.9-4.6,6.8L31.4,32z M31.1,36.4c-1.1,0.3-1.9,1-2.7,1.9c-0.7,1-1.1,2-1.1,3.1
		c0,1.4,1,2.7,2.9,3.9c0.1,0.1,0.2,0.2,0.2,0.3c0,0.3-0.2,0.4-0.5,0.4c-1.4-0.5-2.5-1.3-3.4-2.6c-0.9-1.2-1.3-2.6-1.3-4.1
		c0-1.5,0.5-2.9,1.5-4.2c1-1.3,2.1-2.3,3.5-2.8l-1.1-5.5c-2.5,2.2-4.3,4.1-5.5,5.7C22,35,21.1,37.5,21.1,40c0,2.7,1,4.9,3,6.6
		c1.9,1.6,4.2,2.4,7,2.3c0.8,0,1.6-0.2,2.5-0.4L31.1,36.4z M34.7,9.4c-0.1-1.6-0.7-2.4-2-2.4c-1.4,0.3-2.4,1.4-3.2,3.5
		c-0.6,1.6-0.9,3.2-0.9,5c0,1.8,0.1,3.3,0.4,4.6C33,16.8,34.8,13.2,34.7,9.4z M34.7,48.1c2.5-1.4,3.7-3.4,3.6-6.1
		c-0.1-1.7-0.7-3-1.8-4.1c-1.1-1.1-2.5-1.6-4.1-1.6L34.7,48.1z"/>
</g>
<g>
	<line fill="none" stroke="#000" x1="-30" y1="13" x2="90" y2="13"/>
	<line fill="none" stroke="#000" x1="-30" y1="22.1" x2="90" y2="22"/>
	<line fill="none" stroke="#000" x1="-30" y1="31.3" x2="90" y2="31"/>
	<line fill="none" stroke="#000" x1="-30" y1="40.4" x2="90" y2="40"/>
	<line fill="none" stroke="#000" x1="-30" y1="49.6" x2="90" y2="50"/>
</g>
<g>
	<path d="M26.4,68.3c-0.3-0.4-0.5-0.8-0.6-1.1s-0.2-0.7-0.2-1.1c0-0.7,0.2-1.3,0.7-1.7s1.1-0.7,1.9-0.7c0.7,0,1.3,0.2,1.7,0.6
		s0.6,0.9,0.6,1.4c0,0.4-0.1,0.7-0.3,1s-0.4,0.6-0.7,0.8c-0.2,0.1-0.5,0.3-1,0.5c0.5,0.7,0.9,1.2,1,1.5s0.2,0.6,0.2,1
		c0,0.8-0.3,1.5-0.9,2.1s-1.3,0.9-2.2,0.9c-0.8,0-1.4-0.2-1.9-0.6s-0.7-1-0.7-1.6c0-0.4,0.1-0.8,0.3-1.2s0.5-0.7,0.9-1
		C25.5,68.7,25.9,68.5,26.4,68.3z M26.7,68.6c-0.2,0.2-0.4,0.4-0.5,0.5c-0.1,0.2-0.3,0.6-0.4,1s-0.2,0.9-0.2,1.5
		c0,0.4,0.1,0.7,0.2,0.9s0.4,0.3,0.7,0.3c0.3,0,0.6-0.2,0.8-0.5c0.3-0.4,0.5-0.9,0.5-1.5c0-0.4-0.1-0.7-0.2-1.1S27.1,69.1,26.7,68.6
		z M28.1,67.5c0.2-0.2,0.4-0.4,0.5-0.5c0.2-0.4,0.3-1,0.3-1.7c0-0.4-0.1-0.8-0.2-0.9S28.4,64,28.2,64c-0.2,0-0.4,0.1-0.6,0.3
		c-0.2,0.3-0.3,0.7-0.3,1.3c0,0.3,0.1,0.6,0.2,0.9S27.8,67.1,28.1,67.5z"/>
</g>
</svg>
