<?xml version="1.0" encoding="UTF-8" standalone="no"?>
<!-- Created with Inkscape (http://www.inkscape.org/) -->
<svg
   xmlns:svg="http://www.w3.org/2000/svg"
   xmlns="http://www.w3.org/2000/svg"
   version="1.0"
   width="137.63052"
   height="112.74567"
   id="svg2">
  <defs
     id="defs4" />
  <g
     transform="translate(-307.42099,-476.66)"
     id="layer1">
    <path
       d="M 324.67265,517.43664 C 324.73798,515.69409 325.47858,514.38715 326.89446,513.51581 C 328.31029,512.64456 330.00931,512.20891 331.99153,512.20887 C 332.96808,512.23796 333.75951,512.57196 334.36581,513.21086 C 334.97205,513.84986 335.28427,514.6195 335.30246,515.51979 C 335.25886,516.26044 335.08461,516.82678 334.77968,517.21882 C 334.47469,517.61094 334.30043,518.09015 334.2569,518.65646 C 334.29318,519.65486 334.83048,520.53341 335.8688,521.29213 C 336.90706,522.05091 338.22852,522.45026 339.8332,522.49016 C 341.32525,522.45026 342.47972,521.92022 343.2966,520.90004 C 344.11339,519.87994 344.52726,518.6093 344.53819,517.08813 C 344.56357,514.4888 343.38006,512.02013 340.98766,509.68211 C 338.59519,507.34418 334.84136,506.09533 329.72617,505.93554 C 325.26075,506.06266 321.55775,507.68181 318.61714,510.79302 C 315.6765,513.90431 314.15174,517.74527 314.04284,522.3159 C 314.26012,525.3289 315.78112,527.62869 318.60585,529.21527 C 321.43055,530.80192 324.25527,532.41758 327.08001,534.06226 C 329.9047,535.70699 331.4257,538.12295 331.64302,541.31015 C 331.52318,544.02207 330.28159,546.09139 327.91823,547.51813 C 325.55481,548.94488 322.78845,549.6637 319.61913,549.67459 C 318.34122,549.66734 317.19401,549.3769 316.17751,548.80329 C 315.16099,548.2297 314.62369,547.41649 314.56562,546.36366 C 314.72535,545.22736 315.3643,544.36333 316.48247,543.77156 C 317.60062,543.17982 318.23957,542.35935 318.39932,541.31015 C 318.363,539.69826 317.8257,538.34776 316.78742,537.25862 C 315.74911,536.16952 314.42765,535.60318 312.82303,535.5596 C 311.07317,535.63586 309.73718,536.39824 308.81507,537.84675 C 307.89294,539.2953 307.42825,540.97254 307.42099,542.87848 C 307.51175,546.81384 308.81143,550.09572 311.32004,552.72412 C 313.82864,555.35253 317.0016,556.71756 320.83895,556.81921 C 326.83271,556.67763 331.8354,554.69543 335.84702,550.87262 C 339.85857,547.04981 341.94242,542.23591 342.09857,536.43089 C 341.88339,532.64347 340.37745,529.76282 337.58073,527.78893 C 334.78395,525.8151 331.9872,524.12199 329.19047,522.70959 C 326.3937,521.29727 324.88776,519.53962 324.67265,517.43664 L 324.67265,517.43664 z M 382.5326,518.30794 L 392.81389,518.30794 C 394.24421,518.27167 395.43498,517.77794 396.3862,516.82674 C 397.33731,515.87561 397.83104,514.68484 397.86741,513.25443 C 397.83104,511.82409 397.33731,510.63332 396.3862,509.68211 C 395.43498,508.73099 394.24421,508.23726 392.81389,508.20091 L 385.49501,508.20091 C 386.67484,502.95504 388.27947,498.11209 390.30892,493.67205 C 392.33826,489.23214 395.55479,486.87238 399.95852,486.59277 L 401.17833,486.59277 C 402.17663,486.56744 403.05518,486.66183 403.814,486.87595 C 404.57268,487.09021 404.97203,487.57668 405.01203,488.33537 C 404.73606,490.77143 403.63242,492.39059 401.70111,493.19284 C 399.76967,493.99522 398.66603,495.57081 398.39018,497.91962 C 398.44821,500.06887 399.20333,501.86955 400.65555,503.32165 C 402.10765,504.77387 403.90833,505.52899 406.05759,505.58702 C 409.10342,505.44186 411.37605,504.03326 412.87548,501.36124 C 414.37475,498.68932 415.12262,495.62527 415.11906,492.16907 C 415.01007,487.78724 413.52887,484.13507 410.67545,481.21252 C 407.82189,478.29013 404.24958,476.77262 399.95852,476.66 C 391.8663,476.96141 384.52564,480.19246 377.93651,486.35317 C 371.34731,492.51403 366.48984,499.7966 363.36409,508.20091 L 354.12836,508.20091 C 352.69797,508.23726 351.5072,508.73099 350.55604,509.68211 C 349.60487,510.63332 349.11114,511.82409 349.07484,513.25443 C 349.11114,514.68484 349.60487,515.87561 350.55604,516.82674 C 351.5072,517.77794 352.69797,518.27167 354.12836,518.30794 L 360.57595,518.30794 L 349.07484,564.1381 C 348.1636,568.06255 346.7187,571.58403 344.74015,574.70256 C 342.76158,577.82105 339.96617,579.46925 336.35393,579.64716 L 335.30837,579.64716 C 334.22652,579.67619 333.29714,579.57453 332.52022,579.34221 C 331.74332,579.10984 331.33672,578.57254 331.30041,577.73031 C 331.57633,575.38143 332.67997,573.80583 334.61133,573.00353 C 336.54271,572.2012 337.64635,570.58204 337.92226,568.14606 C 337.87506,566.00411 337.14172,564.23248 335.72223,562.83115 C 334.30275,561.42981 332.48029,560.70373 330.25485,560.65292 C 327.2852,560.78724 325.03435,562.17405 323.50231,564.81335 C 321.9703,567.45264 321.20065,570.53848 321.19338,574.07087 C 321.30231,578.44548 322.78351,582.06861 325.63698,584.94028 C 328.49049,587.8119 332.0628,589.30036 336.35393,589.40568 C 342.10232,589.17653 347.52802,586.61428 352.63102,581.71891 C 357.734,576.8235 362.17868,570.96969 365.96507,564.15746 C 369.75141,557.34522 372.54386,550.94927 374.34242,544.96959 L 382.5326,518.30794 z M 417.43144,523.36146 L 423.70477,523.36146 L 424.22755,523.36146 L 396.17183,550.54588 C 395.47479,551.41719 395.12627,552.28848 395.12627,553.15977 C 395.15894,554.15087 395.52924,555.00038 396.23717,555.70831 C 396.9451,556.41624 397.79461,556.78654 398.78571,556.81921 C 400.07813,556.69578 401.0656,556.20205 401.74812,555.33801 C 402.43063,554.47397 404.46365,553.98024 407.84719,553.85681 C 410.66436,554.2852 412.78451,555.99874 414.20765,558.99745 C 415.63074,561.99615 417.75089,563.7097 420.56811,564.1381 C 426.92127,564.11994 432.51208,562.67504 437.34055,559.8034 C 442.16893,556.93176 444.71021,552.74228 444.96439,547.23496 C 445.02243,546.21846 444.64486,543.85144 443.8317,540.1339 C 443.01844,536.41639 441.42107,534.31076 439.03958,533.81701 C 438.12467,533.83155 437.29694,534.15102 436.55638,534.77543 C 435.81574,535.39988 435.42366,536.24213 435.38014,537.30219 C 435.40914,538.0065 435.52531,538.55832 435.72865,538.95765 C 435.93191,539.35701 436.04809,540.08309 436.07717,541.13589 C 435.99726,543.47388 434.98075,545.46334 433.02763,547.10426 C 431.07444,548.74521 428.66386,549.60199 425.79588,549.67459 C 423.48329,549.52212 421.31231,548.78152 419.28294,547.45278 C 417.25353,546.12407 415.12612,545.12208 412.9007,544.44681 L 439.56236,518.83072 C 440.25935,517.95946 440.60786,517.08817 440.60791,516.21683 C 440.57519,515.21851 440.20489,514.33996 439.49701,513.58116 C 438.78903,512.82245 437.93952,512.42311 436.94847,512.38313 C 435.67053,512.54291 434.52332,513.18186 433.50685,514.29998 C 432.4903,515.41818 430.90745,516.05713 428.75829,516.21683 C 425.7777,515.97001 423.02585,514.98254 420.50276,513.25443 C 417.97961,511.5264 415.27133,510.53893 412.37793,510.29202 C 409.82938,510.47359 407.56401,511.85314 405.58182,514.43068 C 403.59961,517.0083 402.55406,519.69479 402.44516,522.49016 C 402.45604,523.26347 402.69565,523.80802 403.16398,524.12384 C 403.63229,524.43971 404.26398,524.59219 405.05904,524.58127 C 406.17357,524.53048 407.60394,524.32717 409.35018,523.97136 C 411.09638,523.61561 413.79013,523.41231 417.43144,523.36146 L 417.43144,523.36146 z"
       id="text2502"
       style="font-size:174.26139832px;font-style:normal;font-variant:normal;font-weight:normal;font-stretch:normal;text-align:center;text-anchor:middle;fill:#000000;fill-opacity:1;stroke:none;stroke-width:1px;stroke-linecap:butt;stroke-linejoin:miter;stroke-opacity:1;font-family:Emmentaler;-inkscape-font-specification:Emmentaler" />
  </g>
</svg>
