<?xml version="1.0" encoding="UTF-8" standalone="no"?>
<!-- Created with Inkscape (http://www.inkscape.org/) -->
<!DOCTYPE svg PUBLIC "-//W3C//DTD SVG 1.1//EN" "http://www.w3.org/Graphics/SVG/1.1/DTD/svg11.dtd">
<svg
   xmlns="http://www.w3.org/2000/svg"
   width="200"
   height="200">
  <g style="fill:none;stroke:#000000;stroke-width:4;stroke-linecap:butt;stroke-linejoin:miter;stroke-miterlimit:4;stroke-opacity:0.25;stroke-dasharray:none">
    <path d="m 0,52 200,0" />
    <path d="m 0,76 200,0" />
    <path d="m 0,100 200,0" />
    <path d="m 0,124 200,0" />
    <path d="m 0,148 200,0" />
  </g>
  <g style="fill:#000000;fill-opacity:1;stroke:none">
    <path d="m 180,28 2,0 0,81 c 0,4.1 -2.4,7.1 -5,10 -4.2,3.5 -8.8,4.7 -14,4.7 -6.4,0 -10,-4.1 -10,-8.3 0.3,-8.6 12.3,-16 19.6,-15.7 2.7,0.1 6.1,1.5 7.4,2 z" />
    <path d="m 166.1,130.9 2.4,1.9 c -14.4,21.8 -31.9,32 -41.2,36.8 -23.8,12.8 -51.3,15.3 -67.1,15.3 -14.7,0 -26.3,-2.3 -31.5,-5.8 l 1.7,-2.4 c 8.5,3.6 17.5,4.8 30,4.9 39.8,-0.3 64.8,-14.5 67.8,-16.4 8.6,-5.1 19.1,-9.1 38,-34.2 z" />
    <path d="m 45,76 2,0 0,81 c 0,4.1 -2.4,7.1 -5,10 -4.2,3.5 -8.8,4.7 -14,4.7 -6.4,0 -10,-4.1 -10,-8.3 0.3,-8.6 12.3,-16 19.6,-15.7 2.7,0.1 6.1,1.5 7.4,2 z" />
    <path d="m 112.2,63 2,0 0,81 c 0,4.1 -2.4,7.1 -5,10 -4.2,3.5 -8.8,4.7 -14,4.7 -6.4,0 -10,-4.1 -10,-8.3 0.3,-8.6 12.3,-16 19.6,-15.7 2.7,0.1 6.1,1.5 7.4,2 z" />
  </g>
</svg>
