<?xml version="1.0" encoding="UTF-8" standalone="no"?>
<!-- Created with Inkscape (http://www.inkscape.org/) -->
<!DOCTYPE svg PUBLIC "-//W3C//DTD SVG 1.1//EN" "http://www.w3.org/Graphics/SVG/1.1/DTD/svg11.dtd">
<svg
   xmlns="http://www.w3.org/2000/svg"
   width="200"
   height="200">
  <g style="fill:none;stroke:#000000;stroke-width:4;stroke-linecap:butt;stroke-linejoin:miter;stroke-miterlimit:4;stroke-opacity:0.25;stroke-dasharray:none">
    <path d="m 0,52 200,0" />
    <path d="m 0,76 200,0" />
    <path d="m 0,100 200,0" />
    <path d="m 0,124 200,0" />
    <path d="m 0,148 200,0" />
  </g>
  <g style="fill:#000000;fill-opacity:1;stroke:none" >
  <path d="m 189,52 2,0 0,81 c 0,4.1 -2.4,7.1 -5,10 -4.2,3.5 -8.8,4.7 -14,4.7 -6.4,0 -10,-4.1 -10,-8.3 0.3,-8.6 12.3,-16 19.6,-15.7 2.7,0.1 6.1,1.5 7.4,2 z" />
  <path d="m 112,52 2,0 0,81 c 0,4.1 -2.4,7.1 -5,10 -4.2,3.5 -8.8,4.7 -14,4.7 -6.4,0 -10,-4.1 -10,-8.3 0.3,-8.6 12.3,-16 19.6,-15.7 2.7,0.1 6.1,1.5 7.4,2 z" />
  <path d="m 35,52 2,0 0,81 c 0,4.1 -2.4,7.1 -5,10 -4.2,3.5 -8.8,4.7 -14,4.7 -6.4,0 -10,-4.1 -10,-8.3 0.3,-8.6 12.3,-16 19.6,-15.7 2.7,0.1 6.1,1.5 7.4,2 z" />
  <path d="m 91.4,31.5 c -2.2,0 -3.4,1.5 -3.4,4 0,2.8 4.5,5 8.4,5 6.9,0 10.6,-6 10.562403,-9.059806 0.0201,-2.614591 -1.95772,-4.732028 -2.60745,-5.347495 0.3994,-0.828965 6.8,-3 6.6,-8.8 -0.4,-5.5 -3.8,-7.2 -7.5,-7.2 -4.3,0 -7.9,4.1 -8,6.6 0,1.9 1.5,3 3,3 1.3,-0.1 2.4,-0.9 2.5,-2.2 0,-1 -0.1,-2.2 -1,-2.5 -0.6,-1.5 0.2,-3 2.4,-3 2.3,0 3.3,2.3 3.3,4.8 0,4.4 -2.3,7.2 -9,7.2 -0.1,0.7 -0.2,1.1 -0.4,2 2.8,0.1 5.6,1 5.6,4 0,4 -2.9,8.9 -6.5,8.9 -1.3,0 -2.5,-0.8 -2.9,-1.5 0.9,-1.1 2,-2.3 2,-3.4 0,-1.3 -1.5,-2.5 -3.2,-2.5 z" />
  </g>
  <path
     style="fill:none;stroke:#000000;stroke-width:2;stroke-linecap:butt;stroke-linejoin:miter;stroke-miterlimit:4;stroke-opacity:1;stroke-dasharray:none"
     d="M 7.6,42.5 7.5,25.5 77.5,25.5"/>
  <path
     style="fill:none;stroke:#000000;stroke-width:2;stroke-linecap:butt;stroke-linejoin:miter;stroke-miterlimit:4;stroke-opacity:1;stroke-dasharray:none"
     d="m 192.5,42.4 0,-17 -70,0" />
</svg>
