<?xml version="1.0" encoding="UTF-8" standalone="no"?>
<!-- Created with Inkscape (http://www.inkscape.org/) -->
<!DOCTYPE svg PUBLIC "-//W3C//DTD SVG 1.1//EN" "http://www.w3.org/Graphics/SVG/1.1/DTD/svg11.dtd">
<svg
   xmlns="http://www.w3.org/2000/svg"
   width="200"
   height="200">
  <g style="fill:none;stroke:#000000;stroke-width:4;stroke-linecap:butt;stroke-linejoin:miter;stroke-miterlimit:4;stroke-opacity:0.25;stroke-dasharray:none">
    <path d="m 0,52 200,0" />
    <path d="m 0,76 200,0" />
    <path d="m 0,100 200,0" />
    <path d="m 0,124 200,0" />
    <path d="m 0,148 200,0" />
  </g>
  <g style="fill:#000000;fill-opacity:1;stroke:none">
    <path d="m 40.1,51.9 2,0 0,81 c 0,4.1 -2.4,7.1 -5,10 -4.2,3.5 -8.8,4.7 -14,4.7 -6.4,0 -10,-4.1 -10,-8.3 0.3,-8.6 12.3,-16 19.6,-15.7 2.7,0.1 6.1,1.5 7.4,2 z" />
    <path d="m 160,147 -2,0 0,-81 c 0,-4.1 2.4,-7.1 5,-10 4.2,-3.5 8.8,-4.7 14,-4.7 6.4,0 10,4.1 10,8.3 -0.3,8.6 -12.3,16 -19.6,15.7 -2.7,-0.1 -6.1,-1.5 -7.4,-2 z" />
    <path d="m 56.3,129.3 c -0.9,-0.1 -1.4,-0.7 -1.4,-2.1 0,-2.1 4.6,-15 10,-16.8 4.2,-1.39476 10.5,2.4 16,0.1 4.6,-2 6.8,-14 12.2,-17.5 2.7,-1.7 12.7,2.8 16.2,0.9 6.8,-3.8 4.9,-13.5 11.8,-16.8 4.1,-2 12.7,2.6 16.5,0.6 3.7,-1.9 4.4,-5.5 5,-8.3 0.9,1.2 1.7,1.6 1.6,3.2 -0.9,5.4 -4.9184,13.3 -8.6,15.7 -3,2 -14,-1.1 -16.9,-0.2 -3.7,1.2 -6.5,13.8 -10.8,16.3 -3,1.7 -14,-1.6 -17,-0.1 -4.5,2.3 -7.3,14.8 -12.9,16.8 -4.4,1.6 -12.2,-1.4 -15.8,-0.2 -1.8,0.6 -4.3,2.84715 -5.8,8.3 z" />
  </g>
</svg>
