<?xml version="1.0" encoding="UTF-8" standalone="no"?>
<!-- Created with Inkscape (http://www.inkscape.org/) -->

<svg
   xmlns:dc="http://purl.org/dc/elements/1.1/"
   xmlns:cc="http://creativecommons.org/ns#"
   xmlns:rdf="http://www.w3.org/1999/02/22-rdf-syntax-ns#"
   xmlns:svg="http://www.w3.org/2000/svg"
   xmlns="http://www.w3.org/2000/svg"
   xmlns:sodipodi="http://sodipodi.sourceforge.net/DTD/sodipodi-0.dtd"
   xmlns:inkscape="http://www.inkscape.org/namespaces/inkscape"
   id="svg2"
   version="1.1"
   inkscape:version="0.47 r22583"
   width="600"
   height="300.43103"
   sodipodi:docname="Music-quadwholenote.png">
  <metadata
     id="metadata8">
    <rdf:RDF>
      <cc:Work
         rdf:about="">
        <dc:format>image/svg+xml</dc:format>
        <dc:type
           rdf:resource="http://purl.org/dc/dcmitype/StillImage" />
        <dc:title></dc:title>
      </cc:Work>
    </rdf:RDF>
  </metadata>
  <defs
     id="defs6">
    <inkscape:perspective
       sodipodi:type="inkscape:persp3d"
       inkscape:vp_x="0 : 0.5 : 1"
       inkscape:vp_y="0 : 1000 : 0"
       inkscape:vp_z="1 : 0.5 : 1"
       inkscape:persp3d-origin="0.5 : 0.33333333 : 1"
       id="perspective10" />
  </defs>
  <sodipodi:namedview
     pagecolor="#ffffff"
     bordercolor="#666666"
     borderopacity="1"
     objecttolerance="10"
     gridtolerance="10"
     guidetolerance="10"
     inkscape:pageopacity="0"
     inkscape:pageshadow="2"
     inkscape:window-width="1044"
     inkscape:window-height="672"
     id="namedview4"
     showgrid="false"
     inkscape:zoom="1.2"
     inkscape:cx="163.42047"
     inkscape:cy="45.455581"
     inkscape:window-x="0"
     inkscape:window-y="33"
     inkscape:window-maximized="0"
     inkscape:current-layer="svg2" />
  <g
     id="g2848"
     transform="matrix(2.9970995,0,0,2.9970995,643.35583,-61.255577)">
    <path
       id="path2836"
       d="m -91.489057,118.53722 -1,0 0,-29.500003 0,-29.5 -22.000003,0 -22,0 0,5.5 0,5.5 -1,0 -1,0 0,-24 0,-24 1,0 1,0 0,5 0,5 22,0 22.000003,0 0,-5 0,-5 1,0 1,0 0,48 0,48.000003 -1,0 z m -23.000003,-66.000003 22.000003,0 0,-6.5 0,-6.5 -22.000003,0 -22,0 0,6.5 0,6.5 22,0 z"
       style="fill:#000000" />
    <rect
       transform="matrix(0.99999892,-0.0014728,0,1,0,0)"
       y="20.416981"
       x="-214.51239"
       height="3.7499876"
       width="200.04645"
       id="rect2838"
       style="opacity:0.3;fill:#000000;fill-opacity:1;stroke:none" />
    <rect
       style="opacity:0.3;fill:#000000;fill-opacity:1;stroke:none"
       id="rect2840"
       width="200.04645"
       height="3.7499876"
       x="-214.51239"
       y="44.281834"
       transform="matrix(0.99999892,-0.0014728,0,1,0,0)" />
    <rect
       transform="matrix(0.99999892,-0.0014728,0,1,0,0)"
       y="67.999374"
       x="-214.51239"
       height="3.7499876"
       width="200.04645"
       id="rect2842"
       style="opacity:0.3;fill:#000000;fill-opacity:1;stroke:none" />
    <rect
       style="opacity:0.3;fill:#000000;fill-opacity:1;stroke:none"
       id="rect2844"
       width="200.04645"
       height="3.7499876"
       x="-214.51239"
       y="92.306168"
       transform="matrix(0.99999892,-0.0014728,0,1,0,0)" />
    <rect
       transform="matrix(0.99999892,-0.0014728,0,1,0,0)"
       y="116.61274"
       x="-214.65971"
       height="3.7499876"
       width="200.04645"
       id="rect2846"
       style="opacity:0.3;fill:#000000;fill-opacity:1;stroke:none" />
  </g>
</svg>
