<?xml version="1.0" encoding="UTF-8" standalone="no"?>
<svg
   xmlns="http://www.w3.org/2000/svg"
   width="266"
   height="266">
  <g style="fill:#000000;fill-opacity:1;stroke:none">
    <path d="m 122.8,208.5 c -5.4,-4.6 -5.5,-10.2 -0.2,-17.5 6.5,-9 20,-14.6 31.8,-8.7 0.2,-2.9 0.3,-0.5 0.3,-48.8 V 84.3 l 29,-5.6 c 15.95,-3.1 32,-6.4 35.7,-7.3 3.7,-0.9 9.2,-2.1 12.3,-2.6 l 5.7,-1 v 56.4 c 0,53.7 0.5,56.2 -2,60.3 -3.9,6.5 -12.6,12.2 -20.6,12.8 -5.2,0.4 -8.6,-0.8 -12.1,-3.2 -13.4,-11.5 9.8,-33.7 27.2,-28.7 2.1,0.6 3.7,1.5 4.6,2 l 0.4,-40.2 c 0.3,-35.1 0.1,-36 -0.1,-39.2 -3.6,0.7 -15.3,3.2 -28.5,5.8 -14.4,2.5 -35.2,6.8 -48.6,9 l -0.1,48 -0.2,41 c -0.2,5.9 -3.1,9.7 -6.6,12.6 -8.8,7.4 -20.6,10.1 -27.8,4.1 z M 34.9,55.6 C 27.4,51.4 25.5,43.3 31.8,38.1 34,36.2 37.3,34.5 38.6,33.9 37.2,33.1 36.4,32.5 34.8,31.2 26.2,23.9 32.1,10.7 44,10.7 c 10.6,0 16.1,11.1 8.7,17.6 l -4.2,3.3 c 1.9,0.8 4.2,2 5.6,3.4 5.9,5.6 6.4,12.1 0.6,17.7 -4.8,4.6 -14.1,6.2 -19.8,3 z m 14.5,-1.7 c 7.7,-4 7.1,-13.2 -1.6,-17.3 -2.2,-1.1 -4,-1.6 -6.2,-2.2 -1.4,0.5 -1.7,0.8 -3.2,1.6 -7.9,4.4 -8.2,15.3 -0.8,18.8 3.2,1.5 7.1,1.6 11.8,-0.9 z m 1.5,-26.6 c 3.7,-4.5 3.7,-8.9 -0.5,-12.6 -3.9,-3.4 -9.6,-3.8 -13.2,-0.2 -4.2,4 -3.5,9.3 0.9,12.9 2.2,1.8 3.8,2.7 7.6,3.3 2,0 3.3,-1.1 5.3,-3.5 z m 10.9,12 c -0.4,-1.1 0.2,-4.6 1.4,-7.7 1.3,-3.4 2.3,-5.8 1.8,-6.5 -0.5,-0.7 -2.5,0.3 -4.5,2 1.7,-1.8 2.2,-2.6 3.6,-3.9 5.1,-4.2 7.1,-1.1 2.5,8.3 -3.5,7.1 -2,10.1 3,7.4 4.8,-2.6 8.1,-8.1 7.9,-13 -0.1,-2.5 0.4,-4.5 1.1,-4.5 2.2,0 1.4,6.8 -1.4,11.4 -4.7,7.5 -13.7,11.4 -15.5,6.6 z m 19.1,1.2 c -1,-1.2 -1.2,-2.7 -1,-4.9 0.5,-5.8 9.1,-14.8 14.3,-14.7 1,0 3,-0.1 3.8,1.2 0.7,-0.9 1.4,-1.5 1.8,-1.8 1.8,-0.1 1.8,1.9 -0.5,9 -2.8,8.3 -3.1,8.8 0.3,7.5 1.6,-0.6 1.3,0 -0.8,1.9 -2.8,2.4 -6.9,3.6 -6.9,2.1 0,-0.3 0.6,-2.2 1.4,-4.2 L 94.7,33 90,37.2 c -4.7,4.1 -7.3,5 -9.1,3.3 z m 9,-4.6 c 3.5,-2.7 7.5,-9.1 7.5,-11.8 0,-4.9 -11,2.4 -13.5,9 -2.4,6.4 0,7.5 6,2.8 z"/>
    <path d="m 114.9668,31.369141 h 4.79882 v -3 h -4.79882 z m 7.79882,0 h 6 v -3 h -6 z m 9,0 h 6 v -3 h -6 z m 9,0 h 6 v -3 h -6 z m 9,0 h 6 v -3 h -6 z m 9,0 h 6 v -3 h -6 z m 9,0 h 6 v -3 h -6 z m 9,0 h 6 v -3 h -6 z m 9,0 h 6 v -3 h -6 z m 9,0 h 6 v -3 h -6 z m 9,0 h 6 v -3 h -6 z m 9,0 h 6 v -3 h -6 z m 9,0 h 6 v -3 h -6 z m 9,0 h 6 v -3 h -6 z m 9,0 h 1.06446 v 1.935547 h 3 v -3.435547 -1.5 h -1.5 -2.56446 z m 1.06446,10.935547 h 3 v -6 h -3 z m 0,9 h 3 v -6 h -3 z m 0,8.996093 h 3 v -5.996093 h -3 z" />
  </g>
  <g style="fill:none;stroke:#000000;stroke-width:6;stroke-linecap:butt;stroke-linejoin:miter;stroke-miterlimit:4;stroke-dasharray:none;stroke-opacity:0.25">
    <path d="M 0,69 H 266" />
    <path d="M 0,101 H 266" />
    <path d="M 0,133 H 266" />
    <path d="M 0,165 H 266" />
    <path d="M 0,197 H 266" />
  </g>
</svg>
