<?xml version="1.0" encoding="UTF-8" standalone="no"?>
<!-- Created with Inkscape (http://www.inkscape.org/) -->
<!DOCTYPE svg PUBLIC "-//W3C//DTD SVG 1.1//EN" "http://www.w3.org/Graphics/SVG/1.1/DTD/svg11.dtd">
<svg
   xmlns="http://www.w3.org/2000/svg"
   width="200"
   height="200">
  <g style="fill:none;stroke:#000000;stroke-width:4;stroke-linecap:butt;stroke-linejoin:miter;stroke-miterlimit:4;stroke-opacity:0.25;stroke-dasharray:none">
    <path d="m 0,52 200,0" />
    <path d="m 0,76 200,0" />
    <path d="m 0,100 200,0" />
    <path d="m 0,124 200,0" />
    <path d="m 0,148 200,0" />
  </g>
  <g style="fill:#000000;fill-opacity:1;stroke:none">
    <path d="m 98.6,64 c 9.7,0 20.4,3.3 20.4,12.2 0,9.1 -12.3,11.8 -20.2,11.8 l 2.1,-2 c 4.5,0 7,-2.6 7,-7.8 0,-7.4 -5.5,-12.3 -10.4,-12.3 -5.6,0 -6.5,4.5 -6.5,7.6 0.1,8.4 6.4,12.4 9.9,12.4 l -2.1,2 c -6.8,0 -18.9,-2.9 -18.8,-12.1 0.1,-8.9 11.1,-11.9 18.6,-11.8 z" />
    <path d="m 98.6,87.9 c 9.7,0 20.4,3.3 20.4,12.2 0,9.1 -12.3,11.8 -20.2,11.8 l 2.1,-2 c 4.5,0 7,-2.6 7,-7.8 0,-7.4 -5.5,-12.3 -10.4,-12.3 -5.6,0 -6.5,4.5 -6.5,7.6 0.1,8.4 6.4,12.4 9.9,12.4 l -2.1,2 c -6.8,0 -18.9,-2.9 -18.8,-12.1 0.1,-8.9 11.1,-11.9 18.6,-11.8 z" />
    <path d="m 98.6,111.9 c 9.7,0 20.4,3.3 20.4,12.2 0,9.1 -12.3,11.8 -20.2,11.8 l 2.1,-2 c 4.5,0 7,-2.6 7,-7.8 0,-7.4 -5.5,-12.3 -10.4,-12.3 -5.6,0 -6.5,4.5 -6.5,7.6 0.1,8.4 6.4,12.4 9.9,12.4 l -2.1,2 c -6.8,0 -18.9,-2.9 -18.8,-12.1 0.1,-8.9 11.1,-11.9 18.6,-11.8 z" />
  </g>
</svg>
