<?xml version="1.0" encoding="UTF-8" standalone="no"?>
<svg
   xmlns="http://www.w3.org/2000/svg"
   width="200"
   height="200">
  <path
     d="M 64.5,147.5 C 61,143.3 61.3,141 66,135.9 C 68.2,133.5 70,130.9 70,130.1 C 70,129.2 68.2,126.2 66,123.4 C 63.8,120.7 62,117.6 62,116.5 C 62,115.5 63.8,112.6 66,110.1 C 68.2,107.5 70,104.9 70,104.2 C 70,103.5 68.2,101 66,98.8 C 63.7,96.5 62,93.7 62,92.5 C 62,91.3 63.8,88.3 66,85.9 C 68.2,83.6 70,80.9 70,80.1 C 70,79.2 68.2,76.2 66,73.4 C 63.8,70.7 62,67.6 62,66.5 C 62,65.5 63.8,62.6 66,60.1 C 70.3,55.1 70.3,54.4 69,51.5 C 67.3,48.5 69.5,49.2 72.4,52.6 C 76,56.8 75.6,58.9 71,63.9 C 68.8,66.3 67,69.1 67,70.2 C 67,71.2 68.8,74.3 71,76.9 C 73.2,79.6 75,82.6 75,83.7 C 75,84.5 73.2,87.6 71,89.9 C 68.8,92.3 67,94.9 67,95.6 C 67,96.3 68.8,98.8 71,101.2 C 73,103.6 75,106.4 75,107.6 C 75,108.7 73.2,111.6 71,113.9 C 68.8,116.3 67,119.1 67,120.2 C 67,121.1 68.8,124.3 71,126.9 C 73.2,129.6 75,132.6 75,133.7 C 75,134.7 73.2,137.6 71,139.9 C 67,144.2 66,146.9 68,148.1 C 68.5,148.4 69,149.1 69,149.6 C 69,151.4 67.1,150.5 64.5,147.5 z M 108.8,134 C 103.2,132.3 99,127.7 99,123.4 C 99,119.3 104.4,113.8 109.3,112.7 C 113.8,111.7 115.9,111.7 118.3,111.3 C 116.3,111.1 111.6,110.5 109.3,110.1 C 104.2,109.1 99,103.8 99,99.6 C 99,95.3 104.3,90.3 109.3,88.8 C 112.1,87.9 114.5,87.5 116.6,87.3 C 114.8,87.1 111.6,86.5 109.3,86.1 C 104.3,85.2 99,79.8 99,75.7 C 99,63.9 124,59.1 134.5,69 C 137,71.4 138,73.2 138,75.4 C 138,79.6 133.8,84.3 128.6,85.7 C 125.7,86.6 124.2,87.3 121.7,87.8 C 124,88.1 124.6,88.5 126.8,88.9 C 132.9,90.1 138,95.2 138,99.4 C 138,103.6 133.8,108.3 128.6,109.7 C 125.7,110.6 123.1,111.4 120.9,111.5 C 122.9,111.7 123.8,111.8 126.8,112.9 C 132,114.7 138,119.2 138,123.4 C 138,132.6 122.6,138.2 108.8,134 z M 125.6,131 C 128.6,126.4 125.7,117.1 120.4,114.7 C 112.6,111.2 107.8,117.2 111.1,126.5 C 113.3,132.9 122.4,135.8 125.6,131 z M 125.6,107 C 128.6,102.4 125.7,93.1 120.4,90.7 C 112.6,87.2 107.8,93.2 111.1,102.5 C 113.3,108.9 122.4,111.8 125.6,107 z M 125.6,83 C 128.6,78.4 125.7,69.1 120.4,66.7 C 112.6,63.2 107.8,69.2 111.1,78.5 C 113.3,84.9 122.4,87.8 125.6,83 z"
     style="fill:#000000;fill-rule:evenodd" />
  <g style="opacity:0.5;fill:none;stroke:#000000;stroke-width:3">
    <path d="M 0,52 L 200,52" />
    <path d="M 0,76 L 200,76" />
    <path d="M 0,100 L 200,100" />
    <path d="M 0,124 L 200,124" />
    <path d="M 0,148 L 200,148" />
  </g>
</svg>
