<?xml version="1.0" encoding="UTF-8" standalone="no"?>
<svg
   xmlns="http://www.w3.org/2000/svg"
   height="200"
   width="200"
   id="svg6173"
   version="1.1">
  <g
     id="g1809"
     style="fill:none;stroke:#000000;stroke-width:4;stroke-linecap:butt;stroke-linejoin:miter;stroke-miterlimit:4;stroke-opacity:0.25">
    <path
       id="path1799"
       d="M 0,52 H 200" />
    <path
       id="path1801"
       d="M 0,76 H 200" />
    <path
       id="path1803"
       d="M 0,100 H 200" />
    <path
       id="path1805"
       d="M 0,124 H 200" />
    <path
       id="path1807"
       d="M 0,148 H 200" />
  </g>
    <g
       style="fill:#000000;fill-opacity:1"
       id="g4320">
      <path
         id="path1425"
         d="m 91.689545,156.37605 c -4.066597,-3.46413 -4.141905,-7.68134 -0.150615,-13.17878 4.894975,-6.77766 15.06146,-10.99486 23.94772,-6.55174 0.15062,-2.18391 0.22592,-0.37653 0.22592,-36.749957 V 62.844365 l 21.83913,-4.21721 c 12.01151,-2.334526 24.09834,-4.819667 26.88471,-5.497433 2.78637,-0.677766 6.92827,-1.581454 9.2628,-1.957991 l 4.29251,-0.753073 v 42.473325 c 0,40.440027 0.37654,42.322707 -1.50614,45.410317 -2.93699,4.89497 -9.48872,9.18749 -15.51331,9.63933 -3.91598,0.30123 -6.47643,-0.60246 -9.11219,-2.40984 -10.09117,-8.66034 7.38012,-25.37855 20.4836,-21.61319 1.58145,0.45185 2.78637,1.12961 3.46413,1.50614 l 0.30123,-30.273537 c 0.22592,-26.432867 0.0753,-27.110634 -0.0753,-29.520467 -2.71106,0.527151 -11.52201,2.409833 -21.46258,4.367824 -10.84425,1.882683 -26.50817,5.120898 -36.59935,6.777659 l -0.0753,36.147501 -0.15061,30.87601 c -0.15062,4.44313 -2.33453,7.30481 -4.97028,9.48872 -6.62705,5.57274 -15.513313,7.60603 -20.93544,3.0876 z" />
  <path
     id="path1445"
     d="m 94,23.875 h 2.039062 v -3 H 94 Z m 5.039062,0 h 5.999998 v -3 h -5.999998 z m 8.999998,0 h 6 v -3 h -6 z m 9,0 h 6 v -3 h -6 z m 9,0 h 6 v -3 h -6 z m 9,0 h 6 v -3 h -6 z m 9,0 h 6 v -3 h -6 z m 9,0 h 6 v -3 h -6 z m 9,0 h 6 v -3 h -6 z m 9,0 h 6 v -3 h -6 z m 9,-1.5 H 180 v 4.539062 h 3 V 22.375 v -1.5 h -1.5 -1.46094 z M 180,35.914062 h 3 v -6 h -3 z m 0,9 h 3 v -6 h -3 z" />
    <path
       id="path3171"
       d="m 7.9729891,42.079147 c 0.96387,-0.231944 4.2487799,-0.693078 5.0275699,-1.35919 0.55015,-0.470556 0.76894,-1.057717 0.92511,-1.464217 -0.27325,-8.092645 -0.10394,-13.700827 0,-21.794353 C 13.780287,17.02524 13.5329,16.534533 13.172486,16.294498 11.727232,14.918586 8.5874781,17.615063 8.3257491,16.468752 11.101129,14.482521 13.578059,13.10147 16.726009,11.01556 v 28.240212 c 0.0963,0.413565 0.46102,0.913223 1.20696,1.464217 0.80501,0.594616 3.32211,1.198365 4.67613,1.35919 v 0.896477 H 7.9729891 Z M 26.249997,41.509168 c -1.787499,-0.77692 -3.818896,-2.54851 -3.780329,-3.12377 0.04419,-0.659187 1.939585,-1.417732 5.257458,1.614639 3.304156,3.019835 7.147448,2.098097 9.982214,-0.892585 1.350444,-1.424721 2.468453,-3.705508 1.814836,-5.882583 -1.572546,-5.237853 -6.086647,-9.799355 -14.037781,-9.53419 0.702875,-1.944544 1.481278,-4.181538 2.422573,-7.19064 l 1.886546,-5.486136 c 4.280712,-0.0942 8.196492,-0.17569 11.376108,-0.224387 1.273365,-0.142447 2.279315,-0.689596 4.521617,-2.5900992 0.207592,1.7315025 -3.752,6.0141652 -4.307132,6.6680412 -3.824627,0 -9.256059,0.02195 -11.02782,-0.141785 -0.53707,1.39958 -0.948728,3.575605 -1.430553,5.026711 1.595301,0.390445 4.578844,1.425989 7.119869,2.223987 8.398891,3.198629 12.032639,14.297195 1.941349,19.529378 -2.208034,1.109765 -2.23976,1.447544 -6.238955,1.469906 -2.876474,-0.244417 -3.852051,-0.774314 -5.5,-1.466487 z m 35.37303,-19.707046 c -1.325483,2.265231 -1.882557,3.655513 -3.012909,5.069725 h -2.441395 c -1.413488,0 1.225407,-4.946842 1.499165,-6.871841 0.564519,-3.969559 -0.318904,-3.199178 -3.726897,3.249999 -1.107032,2.094911 -0.608369,2.012898 -1.556987,3.621842 h -3.155173 c -0.07697,-0.934219 0.16328,-2.274612 0.427514,-3.226696 0.95726,-3.449184 1.571746,-5.0822 1.636464,-5.893074 -0.642388,-0.368932 -1.436795,0.702997 -2.148272,1.072712 0.160364,-0.882694 0.712112,-1.275884 1.974787,-2.450342 1.710302,-1.590811 3.703894,-1.573618 3.836476,-0.185477 0.05078,0.531733 0.235341,1.370335 -0.158756,2.641962 1.108504,-1.114859 1.770937,-1.7525 2.512309,-2.493872 1.397903,-1.442096 4.087634,-1.598124 4.73339,0.117418 0.262724,0.697966 0.02746,1.686623 -0.451139,2.951032 1.499659,-1.84445 2.997286,-3.137043 4.163077,-3.680887 2.090627,-0.952554 3.08019,-0.705258 3.573401,0.58003 0.328759,0.856732 -0.574323,2.940337 -1.196629,4.306143 -1.480671,3.249716 -1.56781,4.778095 -0.01404,3.844623 0.849356,-0.510277 0.810111,-0.694814 1.247575,-0.517424 -1.108398,1.947043 -3.507265,2.933852 -4.604067,2.933852 -1.5864,0 -1.866495,-0.331972 -1.369739,-2.121875 h -3e-6 c 1.835159,-6.612417 1.885973,-7.039327 0.754658,-6.340135 -0.57974,0.472271 -1.35805,0.968206 -2.52281,3.392252 z m 9.699883,4.031216 c -0.886855,-1.138914 -0.54665,-4.688767 1.65072,-7.243363 1.672769,-1.94471 3.411232,-3.105614 6.867416,-3.495176 2.594352,-0.292421 5.158945,-0.127951 5.158945,0.149427 0,0.277379 -0.671558,2.407727 -1.492353,4.734107 -1.393704,3.950179 -1.023626,5.559739 1.222272,2.297935 -0.139938,1.929819 -1.044557,2.508234 -1.811673,3.207906 -1.349647,1.076808 -2.329208,1.470726 -2.971358,1.387673 -0.642149,-0.08305 -0.946887,-0.643076 -0.946887,-1.944419 v -2.07258 l -2.767442,2.60291 c -0.70615,0.664168 -2.153791,1.457441 -3.129648,1.414089 -0.640079,-0.02843 -1.296563,-0.417682 -1.779992,-1.038509 z m 8.243019,-5.960839 c 1.778617,-3.439468 1.784105,-3.872493 0.04907,-3.872493 -1.799667,0 -4.61501,4.323516 -4.61501,7.08726 0,1.844888 0.226977,1.969254 1.565937,0.858016 0.861265,-0.714786 2.211265,-2.547539 3,-4.072783 z" />
  </g>
</svg>
