<?xml version="1.0" encoding="UTF-8" standalone="no"?>
<!-- Created with Inkscape (http://www.inkscape.org/) -->

<svg
   xmlns:dc="http://purl.org/dc/elements/1.1/"
   xmlns:cc="http://creativecommons.org/ns#"
   xmlns:rdf="http://www.w3.org/1999/02/22-rdf-syntax-ns#"
   xmlns:svg="http://www.w3.org/2000/svg"
   xmlns="http://www.w3.org/2000/svg"
   xmlns:sodipodi="http://sodipodi.sourceforge.net/DTD/sodipodi-0.dtd"
   xmlns:inkscape="http://www.inkscape.org/namespaces/inkscape"
   id="svg2"
   version="1.1"
   inkscape:version="0.48.2 r9819"
   width="600"
   height="300.43103"
   sodipodi:docname="Music-octwholenote.svg">
  <metadata
     id="metadata8">
    <rdf:RDF>
      <cc:Work
         rdf:about="">
        <dc:format>image/svg+xml</dc:format>
        <dc:type
           rdf:resource="http://purl.org/dc/dcmitype/StillImage" />
        <dc:title></dc:title>
      </cc:Work>
    </rdf:RDF>
  </metadata>
  <defs
     id="defs6" />
  <sodipodi:namedview
     pagecolor="#ffffff"
     bordercolor="#666666"
     borderopacity="1"
     objecttolerance="10"
     gridtolerance="10"
     guidetolerance="10"
     inkscape:pageopacity="0"
     inkscape:pageshadow="2"
     inkscape:window-width="1280"
     inkscape:window-height="1003"
     id="namedview4"
     showgrid="false"
     inkscape:zoom="1.6970563"
     inkscape:cx="284.74819"
     inkscape:cy="146.54091"
     inkscape:window-x="-4"
     inkscape:window-y="-4"
     inkscape:window-maximized="1"
     inkscape:current-layer="svg2" />
  <g
     id="g2848"
     transform="matrix(2.9970995,0,0,2.9970995,643.35583,-61.255577)">
    <path
       id="path2836"
       d="m -91.489057,118.53722 -1,0 0,-59.000003 -70.692473,0 0,11 -2,0 0,-48 2,0 0,10 70.692473,0 0,-10 2,0 0,96.000003 z m -1,-66.000003 0,-13 -70.692473,0 0,13 z"
       style="fill:#000000"
       inkscape:connector-curvature="0"
       sodipodi:nodetypes="ccccccccccccccccccc" />
    <rect
       transform="matrix(0.99999892,-0.0014728,0,1,0,0)"
       y="20.416981"
       x="-214.51239"
       height="3.7499876"
       width="200.04645"
       id="rect2838"
       style="opacity:0.3;fill:#000000;fill-opacity:1;stroke:none" />
    <rect
       style="opacity:0.3;fill:#000000;fill-opacity:1;stroke:none"
       id="rect2840"
       width="200.04645"
       height="3.7499876"
       x="-214.51239"
       y="44.281834"
       transform="matrix(0.99999892,-0.0014728,0,1,0,0)" />
    <rect
       transform="matrix(0.99999892,-0.0014728,0,1,0,0)"
       y="67.999374"
       x="-214.51239"
       height="3.7499876"
       width="200.04645"
       id="rect2842"
       style="opacity:0.3;fill:#000000;fill-opacity:1;stroke:none" />
    <rect
       style="opacity:0.3;fill:#000000;fill-opacity:1;stroke:none"
       id="rect2844"
       width="200.04645"
       height="3.7499876"
       x="-214.51239"
       y="92.306168"
       transform="matrix(0.99999892,-0.0014728,0,1,0,0)" />
    <rect
       transform="matrix(0.99999892,-0.0014728,0,1,0,0)"
       y="116.61274"
       x="-214.65971"
       height="3.7499876"
       width="200.04645"
       id="rect2846"
       style="opacity:0.3;fill:#000000;fill-opacity:1;stroke:none" />
  </g>
</svg>
