<?xml version="1.0" encoding="utf-8"?>
<!-- Generator: Adobe Illustrator 16.0.0, SVG Export Plug-In . SVG Version: 6.00 Build 0)  -->
<!DOCTYPE svg PUBLIC "-//W3C//DTD SVG 1.1//EN" "http://www.w3.org/Graphics/SVG/1.1/DTD/svg11.dtd">
<svg version="1.1"
	 id="svg2" xmlns:rdf="http://www.w3.org/1999/02/22-rdf-syntax-ns#" xmlns:inkscape="http://www.inkscape.org/namespaces/inkscape" xmlns:cc="http://creativecommons.org/ns#" xmlns:dc="http://purl.org/dc/elements/1.1/" xmlns:sodipodi="http://sodipodi.sourceforge.net/DTD/sodipodi-0.dtd" xmlns:svg="http://www.w3.org/2000/svg" sodipodi:docname="SixtyFourthNote.svg" inkscape:version="0.48.1 r9760"
	 xmlns="http://www.w3.org/2000/svg" xmlns:xlink="http://www.w3.org/1999/xlink" x="0px" y="0px" width="599px" height="450.489px"
	 viewBox="0 -52.51 599 450.489" enable-background="new 0 -52.51 599 450.489" xml:space="preserve">
<sodipodi:namedview  pagecolor="#ffffff" inkscape:zoom="0.49497475" fit-margin-left="1" fit-margin-top="1" bordercolor="#666666" inkscape:cx="443.97472" showgrid="false" borderopacity="1.0" inkscape:cy="-44.395187" id="base" fit-margin-bottom="1" fit-margin-right="1" inkscape:window-maximized="0" inkscape:window-y="25" inkscape:current-layer="layer2" inkscape:window-x="0" inkscape:pageshadow="2" inkscape:document-units="px" inkscape:pageopacity="0.0" inkscape:window-height="1051" inkscape:window-width="1165">
	</sodipodi:namedview>
<g id="g3865" transform="translate(0,1.0101525)">
	
		<path id="path3050" inkscape:connector-curvature="0" opacity="0.5616" fill="none" stroke="#000000" stroke-width="5" stroke-opacity="0.9426" enable-background="new    " d="
		M0.999,106.574h597"/>
	
		<path id="path3050-8" inkscape:connector-curvature="0" opacity="0.5616" fill="none" stroke="#000000" stroke-width="5" stroke-opacity="0.9426" enable-background="new    " d="
		M0.999,178.295h597"/>
	
		<path id="path3050-0" inkscape:connector-curvature="0" opacity="0.5616" fill="none" stroke="#000000" stroke-width="5" stroke-opacity="0.9426" enable-background="new    " d="
		M0.999,250.016h597"/>
	
		<path id="path3050-1" inkscape:connector-curvature="0" opacity="0.5616" fill="none" stroke="#000000" stroke-width="5" stroke-opacity="0.9426" enable-background="new    " d="
		M0.999,321.737h597"/>
	
		<path id="path3050-7" inkscape:connector-curvature="0" opacity="0.5616" fill="none" stroke="#000000" stroke-width="5" stroke-opacity="0.9426" enable-background="new    " d="
		M0.999,393.458h597"/>
</g>
<path sodipodi:nodetypes="cczssccscsscccsscsccssscsccsssscc" inkscape:connector-curvature="0" stroke="#000000" d="M341.42,4.402
	c0.253,14.142,1.694,17.678,6.745,28.284c6.614,13.892,33.335,25.254,47.981,48.992c14.647,23.738,14.229,37.519,14.229,51.66
	c0,14.143-3.123,24.458-3.123,24.458s0.598-1.811-2.372-8.759c1.011-9.092,1.937-26.126-10.249-49.682
	c-5.527-10.686-30.662-28.642-53.391-43.794c0.253,14.142,1.694,17.678,6.745,28.284c6.614,13.892,33.335,25.254,47.981,48.992
	c14.647,23.738,14.229,37.519,14.229,51.66c0,14.143-3.123,24.458-3.123,24.458s0.598-1.811-2.372-8.759
	c1.011-9.092,1.937-26.126-10.249-49.682c-5.527-10.686-30.483-28.642-53.212-43.794c0.505,17.173,2.199,23.086,10.28,34.197
	c11.056,15.202,29.8,24.244,44.951,44.447c15.152,20.202,16.76,52.329,10.245,72.99c0,0-1.189-3.086-2.878-6.642
	c4.97-60.018-39.513-73.058-62.599-92.379c0,25.254,9.271,38.657,40.585,65.426c31.314,26.77,31.177,54.753,31.284,68.39
	c0.179,22.744-10.693,41.793-16.132,48.788c2.02-7.071,20.232-53.449,1.515-80.307c-9.488-13.616-33.335-21.214-57.073-40.406
	c0,0,0.505,90.029,0,133.466c-12.122,31.82-41.416,37.755-56.568,37.755s-30.441-9.021-30.81-21.213
	c-0.457-15.113,11.111-28.79,29.8-37.881c18.688-9.092,42.931-9.597,51.518-2.525l-0.03-380.411l6.091-0.06l0.179,13.288
	c0.065,4.918,0.622,8.964,6.893,16.007c9.481,10.649,28.285,26.264,41.416,41.921c13.133,15.657,18.689,30.855,19.816,45.033
	c1.336,16.821-3.148,37.8-3.148,37.8s0.326-1.627-2.199-7.184c0.449-35.82-4.871-40.294-16.488-56.456S364.654,18.543,341.42,4.402"
	/>
</svg>
