<?xml version="1.0" encoding="UTF-8" standalone="no"?>
<!DOCTYPE svg PUBLIC "-//W3C//DTD SVG 1.1//EN" "http://www.w3.org/Graphics/SVG/1.1/DTD/svg11.dtd">
<svg
   xmlns="http://www.w3.org/2000/svg"
   width="200"
   height="200">
  <g style="fill:none;stroke:#000;stroke-width:4;stroke-linecap:butt;stroke-linejoin:miter;stroke-miterlimit:4;stroke-opacity:0.25;stroke-dasharray:none">
    <path d="m 0,52 200,0" />
    <path d="m 0,76 200,0" />
    <path d="m 0,100 200,0" />
    <path d="m 0,124 200,0" />
    <path d="m 0,148 200,0" />
  </g>
  <path
     d="m 87.9,148 -2,0 0,-81 c 0,-4.1 2.4,-7.1 5,-10 4.2,-3.5 8.8,-4.7 14,-4.7 6.4,0 10,4.1 10,8.3 -0.3,8.6 -12.3,16 -19.6,15.7 -2.7,-0.1 -6.1,-1.5 -7.4,-2 z"
     style="fill:#000000;fill-opacity:1;stroke:none" />
  <path
     style="fill:#000000;fill-opacity:0.94117647;stroke:none"
     d="m 78.3,20 0.46,-3 10,0 c 0.6,-2 2,-6.2 2.3,-7 1,-0.8 5.5,-3.4 8.3,-4.5 L 95.4,16.9 107,16 c 0.9,0 2.2,-0.2 2.7,0.4 0.9,1 0.9,2.5 0.8,3.4 1.1,-1.8 4,-3.8 7.1,-3.8 3.1,0 4.9,1.3 4.5,4.4 -0.3,2 -1.3,3.1 -3,3.1 -1.3,0 -2.6,-0.3 -2.8,-2 -0.1,-1 -0.2,-2.1 0.4,-3.1 -3.9,0.5 -5.69667,3.683476 -6.27557,4.419417 -0.69069,0.878053 -3.88909,12.084949 -5.83363,18.127424 l -6.1,0 0.7,-2.8 c -2.3,1.2 -5.7,3 -7.4,3.7 l -1.9,-3.6 c 5.9,-0.4 8,-2 10.2,-3.6 1.2,-3.782226 3.8,-12.1 4.7,-15.7 l -10,0.6 c -1.9,5.6 -4,11.8 -5.6,16.7 -0.1,0.4 0.1,2 0.7,2 l 1.9,3.6 c -0.9,0.2 -2.1,0.5 -2.8,0.5 -0.9,0 -5.5,-0.3 -6.3,-4.9 -0.2,-1.5 3.5,-11.7 5.2,-17.5 z" />
</svg>
