<?xml version="1.0" encoding="utf-8"?>
<!DOCTYPE svg PUBLIC "-//W3C//DTD SVG 1.1//EN" "http://www.w3.org/Graphics/SVG/1.1/DTD/svg11.dtd">
<svg xmlns="http://www.w3.org/2000/svg" width="205.75px"
	 height="166.5px">
		<line fill="none" stroke="#BFBFBF" stroke-width="4" stroke-miterlimit="10" x1="3.75" y1="59.5" x2="202.75" y2="59.5"/>
		<line fill="none" stroke="#BFBFBF" stroke-width="4" stroke-miterlimit="10" x1="3.75" y1="83.5" x2="202.75" y2="83.5"/>
		<line fill="none" stroke="#BFBFBF" stroke-width="4" stroke-miterlimit="10" x1="3.75" y1="107.5" x2="202.75" y2="107.5"/>
		<line fill="none" stroke="#BFBFBF" stroke-width="4" stroke-miterlimit="10" x1="3.75" y1="131.5" x2="202.75" y2="131.5"/>
		<line fill="none" stroke="#BFBFBF" stroke-width="4" stroke-miterlimit="10" x1="3.75" y1="155.5" x2="202.75" y2="155.5"/>
		<path d="M133.908,62.517c-1.665-1.388-3.913-2.267-6.596-2.267c-4.07,0-8.666,1.712-12.273,4.486
			c-3.516,2.683-6.102,6.509-6.102,10.764v79.25h2.5V81.5c1.665,1.572,4.138,2,7.375,2c3.793,0,8.344-1.929,11.766-4.796
			c3.516-2.775,5.984-6.662,5.984-10.454C136.562,65.845,135.666,63.904,133.908,62.517z"/>
			<path d="M91.901,31.547c-1.474-1.854-3.613-3.898-5.515-6.181c-2.472-2.995-2.518-5.989-2.851-8.366h-1.157v36.618
				c-0.856-0.808-2.315-1.012-3.979-1.012c-1.902,0-4.184,0.951-5.99,2.425c-1.806,1.426-3.137,3.375-3.137,5.325
				c0,1.235,0.523,2.282,1.426,2.994c0.855,0.713,2.091,1.141,3.422,1.141c2.092,0,4.469-0.855,6.275-2.282
				c1.854-1.426,3.139-3.369,3.139-5.507V29.72c2.662,0.19,5.704,2.065,7.51,4.394c1.616,1.997,2.567,4.707,2.662,7.226
				c0.189,4.517-2.093,8.683-3.234,11.25h0.771c1.617-2.709,3.984-7.542,3.984-12.486C95.228,37.014,93.85,33.971,91.901,31.547z"/>
		<polygon points="95.5,32.25 77.75,44.75 77.75,43.75 95.5,31.25 		"/>
		<path d="M78,67.5l-1.5,1.25c0,0,2.5,3.5,10.25,5.75s16.5,1.75,16.5,1.75l0.25-2.5c0,0-8,1-14.25-0.75
			C82.894,71.22,78,67.5,78,67.5z"/>
</svg>
