<?xml version="1.0" encoding="UTF-8" standalone="no"?>
<svg
   xmlns="http://www.w3.org/2000/svg"
   height="26px"
   width="40px">
  <path d="m 20.6,8.45 0.1,-0.5 c 2.967,0.267 5.308,0.65 7.025,1.15 1.716,0.5 3.058,1.05 4.024,1.65 0.967,0.634 1.851,1.392 2.65,2.275 0.8,0.884 1.4,1.925 1.8,3.125 0.433,1.3 0.633,2.518 0.601,3.65 -0.034,1.134 -0.218,2.117 -0.551,2.95 -0.333,0.833 -0.774,1.492 -1.324,1.975 -0.551,0.483 -1.125,0.725 -1.726,0.725 -1.399,-0.033 -2.608,-0.399 -3.625,-1.1 -1.017,-0.701 -1.809,-1.583 -2.375,-2.65 -0.267,0.534 -0.55,1.034 -0.85,1.5 -0.268,0.4 -0.559,0.784 -0.875,1.15 -0.317,0.367 -0.659,0.6 -1.025,0.7 -1.1,0.366 -1.942,0.466 -2.524,0.3 -0.584,-0.166 -1.242,-0.55 -1.976,-1.15 -0.6,-0.6 -1.1,-1.2 -1.55,-1.85 l -2.85,2.75 c -0.167,0.167 -0.358,0.15 -0.575,-0.05 -0.217,-0.2 -0.442,-0.483 -0.675,-0.851 -0.367,-0.466 -0.642,-0.824 -0.825,-1.074 -0.6,-0.7 -1.3,-1.2 -1.975,-1.625 -0.534,-0.267 -1.034,-0.583 -1.5,-0.95 -0.4,0.6 -0.9,1 -1.35,1.424 -0.5,0.4 -1,0.8 -1.55,1.225 -0.467,0.367 -0.942,0.718 -1.425,1.051 -0.483,0.333 -0.942,0.617 -1.375,0.85 -0.434,0.233 -0.809,0.383 -1.125,0.45 -0.317,0.066 -0.525,0 -0.625,-0.2 -0.2,-0.333 -0.2,-0.741 0,-1.225 0.2,-0.483 0.542,-0.967 1.025,-1.45 0.483,-0.483 1.05,-0.941 1.7,-1.375 0.65,-0.433 1.325,-0.75 2.025,-0.95 0.7,-0.3 1.4,-0.5 2.05,-0.75 0.3,-0.4 0.6,-0.8 0.85,-1.125 0.5,-0.6 0.5,-1.4 0.65,-2.125 0.033,-0.633 -0.159,-1.341 -0.575,-2.125 C 9.834,13.442 9.393,12.617 8.926,11.75 8.46,10.884 8.068,9.975 7.752,9.025 7.435,8.075 7.394,7.134 7.627,6.2 l 1.4,-5.45 C 8.56,0.75 7.952,0.85 7.202,1.05 6.452,1.25 5.684,1.558 4.902,1.975 4.118,2.392 3.394,2.925 2.727,3.575 2.06,4.225 1.61,5.017 1.377,5.95 1.31,6.217 1.3,6.5 1.302,6.8 1.3,7.5 1.7,8.1 2.077,8.3 2.3,8.5 2.71,8.533 3.177,8.5 3.844,8.467 4.419,8.284 4.902,7.95 5.385,7.617 5.71,7.267 5.877,6.9 5.943,6.7 6.06,6.434 6.227,6.1 l 0.25,-0.5 0.25,0 C 6.6,6 6.6,6.5 6.527,6.8 6.46,7.467 6.252,8.092 5.902,8.675 5.552,9.259 5.144,9.75 4.677,10.15 4.21,10.55 3.727,10.842 3.227,11.025 2.727,11.209 2.277,11.234 1.877,11.1 1.577,11 1.285,10.817 1.002,10.55 0.718,10.283 0.485,9.933 0.302,9.5 0.118,9.067 0.019,8.534 0.002,7.9 -0.015,7.267 0.093,6.55 0.327,5.75 0.559,4.95 0.985,4.192 1.602,3.475 2.218,2.759 2.977,2.142 3.877,1.625 4.777,1.109 5.785,0.708 6.902,0.425 8.019,0.142 9.21,0 10.477,0 c 1.6,0.034 3.116,0.392 4.55,1.075 1.433,0.684 2.55,1.625 3.35,2.825 0.333,0.5 0.558,1.034 0.675,1.6 0.116,0.567 0.125,1.1 0.025,1.6 -0.101,0.5 -0.3,0.942 -0.6,1.325 -0.3,0.383 -0.7,0.675 -1.2,0.875 -0.9,0.333 -1.825,0.375 -2.775,0.125 C 13.552,9.175 12.793,8.8 12.227,8.3 11.9,7.9 11.6,7.5 11.277,7.075 11.11,6.825 10.96,6.592 10.827,6.375 10.693,6.159 10.61,6 10.577,5.9 c -0.1,-0.3 0.1,-0.1 0.25,-0.3 0.033,0.067 0.183,0.259 0.45,0.575 0.267,0.317 0.517,0.542 0.75,0.675 0.4,0.267 0.833,0.442 1.3,0.525 0.466,0.083 0.925,0.109 1.375,0.075 0.45,-0.033 0.857,-0.117 1.225,-0.25 0.367,-0.133 0.65,-0.3 0.85,-0.5 C 17.343,6.134 17.552,5.408 17.402,4.525 17.252,3.642 16.61,2.817 15.477,2.05 14.91,1.65 14.368,1.375 13.852,1.225 13.335,1.075 12.843,0.95 12.377,0.85 11.9,0.8 11.4,0.8 10.877,0.75 l -0.85,0 -0.8,3 c -0.2,0.8 -0.142,1.617 0.175,2.45 0.316,0.833 0.725,1.65 1.225,2.45 0.5,0.8 0.983,1.592 1.45,2.375 0.466,0.784 0.732,1.525 0.8,2.225 0.033,0.467 -0.009,1 -0.125,1.6 -0.117,0.6 -0.275,1.175 -0.475,1.725 -0.2,0.551 -0.4,1.059 -0.6,1.525 -0.2,0.467 -0.367,0.8 -0.5,1 0.533,0.067 0.992,0.175 1.375,0.325 0.383,0.149 0.808,0.375 1.275,0.675 0.633,0.434 1.225,0.884 1.775,1.35 0.55,0.468 0.875,0.934 0.975,1.4 l 1.45,-1.25 c -0.2,-0.433 -0.35,-0.941 -0.45,-1.525 -0.1,-0.582 -0.167,-1.175 -0.2,-1.774 -0.1,-1 0,-1.9 0.2,-2.85 0.1,-0.6 0.441,-1.108 0.825,-1.525 0.383,-0.417 0.808,-0.75 1.275,-1 0.467,-0.25 0.958,-0.408 1.476,-0.475 0.516,-0.066 0.975,-0.017 1.375,0.15 0.6,0.233 1.125,0.55 1.574,0.95 0.45,0.4 0.775,0.867 0.976,1.4 0.066,0.167 -0.108,0.559 -0.525,1.175 -0.417,0.618 -0.908,1.258 -1.475,1.925 -0.567,0.667 -1.117,1.283 -1.65,1.85 -0.533,0.567 -0.884,0.9 -1.05,1 0.1,0.233 0.258,0.525 0.475,0.875 0.4,0.8 1,1.3 1.651,1.85 0.35,0.217 0.725,0.324 1.125,0.324 0.566,-0.032 1.1,-0.375 1.6,-1.024 0.5,-0.65 1.033,-1.342 1.601,-2.075 -0.067,-0.5 -0.125,-0.916 -0.175,-1.25 -0.1,-0.6 -0.1,-1.1 -0.076,-1.674 0.1,-0.8 0.3,-1.5 0.474,-2.225 0.15,-0.466 0.351,-0.908 0.601,-1.325 0.25,-0.417 0.582,-0.8 1,-1.15 0.416,-0.35 0.941,-0.625 1.574,-0.825 0,0.2 0.2,0.3 0.25,0.4 -0.967,0.533 -1.592,1.383 -1.875,2.55 -0.283,1.167 -0.208,2.533 0.226,4.1 0.133,0.567 0.357,1.168 0.675,1.801 0.316,0.633 0.683,1.199 1.1,1.699 0.417,0.5 0.858,0.893 1.325,1.176 0.467,0.283 0.933,0.392 1.4,0.324 0.767,-0.133 1.3,-0.824 1.6,-2.074 0.3,-1.25 0.033,-2.976 -0.8,-5.176 -0.167,-0.466 -0.434,-1.141 -0.8,-2.024 -0.367,-0.883 -0.8,-1.658 -1.3,-2.325 -0.3,-0.4 -0.6,-0.8 -0.976,-1.15 -0.5,-0.5 -1.1,-0.8 -1.575,-1.1 C 28.645,10.137 27.47,9.728 25.954,9.378 24.435,9.025 22.644,8.717 20.577,8.45 Z m 0.2,5.45 c -0.468,-0.066 -0.734,-0.075 -0.801,-0.025 -0.066,0.05 -0.217,0.225 -0.449,0.525 -0.268,0.334 -0.426,0.784 -0.476,1.35 -0.05,0.567 -0.033,1.133 0.05,1.7 0.083,0.567 0.208,1.109 0.375,1.625 0.167,0.518 0.333,0.893 0.5,1.125 0.066,-0.032 0.275,-0.241 0.625,-0.625 0.351,-0.383 0.717,-0.808 1.101,-1.274 0.383,-0.467 0.716,-0.925 1,-1.375 0.282,-0.45 0.375,-0.758 0.274,-0.925 -0.3,-0.667 -0.6,-1.167 -0.899,-1.5 -0.3,-0.334 -0.733,-0.534 -1.3,-0.601 z m 18,11.3 c -0.367,0 -0.684,-0.133 -0.95,-0.399 -0.268,-0.267 -0.4,-0.583 -0.4,-0.95 0,-0.366 0.133,-0.666 0.4,-0.9 0.267,-0.232 0.583,-0.35 0.95,-0.35 0.366,0 0.683,0.117 0.949,0.35 0.267,0.234 0.4,0.534 0.4,0.9 0,0.367 -0.134,0.684 -0.4,0.95 -0.266,0.266 -0.582,0.399 -0.949,0.399 z" />
</svg>
