<?xml version="1.0" encoding="UTF-8" standalone="no"?>
<svg
   xmlns="http://www.w3.org/2000/svg"
   height="200"
   width="200"
   id="svg4322"
   version="1.1">
  <path
     id="path4875"
     d="M 14.4,85 V 35.6 H 185.3 v 48.6"
     style="fill:none;stroke:#000000;stroke-width:3" />
  <path
     id="path4877"
     d="m 14.5,166.6 v -49.2 l 172.4,0.2"
     style="fill:none;stroke:#000000;stroke-width:3" />
  <g
    id="g1"
    style="fill:#000000">
    <path
       id="path4879"
       d="m 28.531072,59.039553 -0.564971,-1.271187 9.745762,-12.04096 h 5.225989 c 0,0 -7.689281,24.398833 -7.20339,25.56497 0.353108,0.847457 2.966102,0.812146 2.966102,0.812146 v 1.765537 H 25.317796 v -1.765537 c 0,0 3.001412,0.176555 4.272599,-0.812146 1.271186,-0.988701 5.296609,-17.33757 5.296609,-17.33757 z" />
    <circle
       r="4"
       cy="73"
       cx="48"
       id="path4881" />
    <circle
       r="4"
       cy="155"
       cx="53"
       id="path4881-6" />
    <path
       id="path4898"
       d="m 34.745761,130.43786 c -0.677317,2.37998 1.307946,5.22453 -0.494349,7.02683 -0.962172,0.74319 -2.604533,1.26938 -3.884182,-0.21188 -1.614902,-2.74665 0.636708,-6.47454 3.672317,-8.65113 1.609133,-1.15009 3.393501,-1.94026 6.073446,-1.90678 1.588551,0.19399 2.361791,0.24318 3.884181,0.91808 0.826825,0.50903 1.445987,1.02226 1.977401,1.55367 2.47678,2.47678 2.857608,7.1342 0.706215,9.85169 -2.491843,3.14753 -7.790384,4.43587 -11.652543,6.17938 -3.158373,1.78403 -4.012167,2.5158 -5.720339,4.48448 0.506516,0.50652 2.240689,0.008 3.637006,0.49435 1.533585,0.53478 3.080632,1.24448 5.402543,1.94209 2.914647,0.94556 4.675556,-1.67502 6.214688,-2.89547 0.743375,0.34375 1.216293,0.4433 1.483051,1.12994 -2.971988,2.94532 -3.747457,7.26344 -8.827684,7.34463 -2.869943,-0.0112 -4.404348,-2.53541 -6.77966,-3.74293 -1.098427,-0.51266 -3.435455,0.52964 -4.34322,1.90676 -0.682058,0.1171 -1.186316,0.13414 -2.224577,0.0706 -0.172811,-1.27306 -0.203247,-2.13588 0.282487,-3.10735 1.336675,-2.67335 2.763787,-4.67057 4.872881,-6.77966 1.450708,-1.42651 3.196825,-2.50262 5.084745,-3.53107 1.813773,-1.03694 2.686086,-1.16773 5.508475,-2.82486 1.119556,-0.66052 1.767692,-1.59113 2.189265,-2.33051 0.670428,-1.20684 1.051759,-2.2053 1.341808,-3.53108 0.103797,-1.01974 -0.01752,-1.97713 -0.494349,-2.82485 -1.389671,-2.39092 -4.74019,-2.67797 -7.909605,-0.56497 z" />
  </g>
</svg>
