<?xml version="1.0" encoding="UTF-8" standalone="no"?>
<svg
   xmlns="http://www.w3.org/2000/svg"
   id="svg1455"
   version="1.1"
   height="200"
   width="200">
  <g
       id="text2006"
       style="fill:#000000;fill-opacity:1;stroke:none">
      <path
         id="path2008"
         d="m 46,69 0.516815,-1.59351 h 18.6484 q 11.843672,0 17.528635,2.71327 5.72803,2.71328 9.130394,8.57052 3.402364,5.81416 3.402364,12.48969 0,5.72803 -1.981123,11.15458 -1.938056,5.38349 -4.435994,8.65665 -2.45487,3.23009 -7.57995,7.14927 -5.12508,3.91918 -11.111518,5.81417 -5.986438,1.85192 -14.944561,1.85192 H 30.066939 l 0.559882,-1.59351 q 3.402364,-0.0861 4.565197,-0.60296 1.722716,-0.73215 2.541006,-1.98112 1.24897,-1.80885 2.799414,-7.27847 l 10.336296,-35.31568 q 1.205901,-4.17759 1.205901,-6.54632 0,-1.67965 -1.119766,-2.58407 -1.119765,-0.90443 -4.392925,-0.90443 z m 15.289104,1.63658 -12.661962,43.71392 q -1.421241,4.90974 -1.421241,6.07257 0,0.68909 0.430679,1.3351 0.473747,0.64602 1.248969,0.86136 1.119766,0.38761 3.617704,0.38761 6.76166,0 12.532758,-1.37817 5.814166,-1.42124 9.518006,-4.17758 5.254283,-4.00532 8.39824,-11.02539 3.143957,-7.02006 3.143957,-15.97819 0,-10.12095 -4.823605,-15.03069 -4.823605,-4.95281 -14.083203,-4.95281 -2.282599,0 -5.900302,0.17227 z" />
      <path
         id="path2010"
         d="m 92,118 q 1.85192,0 3.100889,1.29204 1.29204,1.24897 1.29204,3.05782 0,1.80885 -1.29204,3.10089 -1.292037,1.24897 -3.100889,1.24897 -1.808852,0 -3.100889,-1.24897 -1.248969,-1.29204 -1.248969,-3.10089 0,-1.80885 1.248969,-3.05782 1.292037,-1.29204 3.100889,-1.29204 z" />
      <path
         id="path2012"
         d="m 160,69 -4.34986,18.90681 h -1.55044 l -0.17227,-4.73747 q -0.21534,-2.58407 -0.99057,-4.60826 -0.77522,-2.0242 -2.32566,-3.4885 -1.55045,-1.50738 -3.91918,-2.32567 -2.36873,-0.86136 -5.25428,-0.86136 -7.70916,0 -13.48026,4.22066 -7.36461,5.38348 -11.54219,15.20296 -3.44544,8.09677 -3.44544,16.40887 0,8.48438 4.95281,13.56639 4.95281,5.03895 12.8773,5.03895 5.98644,0 10.63778,-2.67021 4.6944,-2.67021 8.69971,-8.22597 h 2.02419 q -4.73747,7.53688 -10.50856,11.11151 -5.7711,3.53157 -13.8248,3.53157 -7.14927,0 -12.66196,-2.97168 -5.51269,-3.01476 -8.39824,-8.44131 -2.88555,-5.42656 -2.88555,-11.6714 0,-9.56107 5.12508,-18.60533 5.12508,-9.04426 14.04013,-14.21241 8.95813,-5.16815 18.04545,-5.16815 4.26372,0 9.56108,2.02419 2.32566,0.86136 3.35929,0.86136 1.03363,0 1.80885,-0.43068 0.77523,-0.43068 2.58408,-2.45487 z" />
      <path
         id="path2014"
         d="m 160,118 q 1.85192,0 3.10089,1.29204 1.29204,1.24897 1.29204,3.05782 0,1.80885 -1.29204,3.10089 -1.29204,1.24897 -3.10089,1.24897 -1.80885,0 -3.10089,-1.24897 -1.24897,-1.29204 -1.24897,-3.10089 0,-1.80885 1.24897,-3.05782 1.29204,-1.29204 3.10089,-1.29204 z" />
    </g>
</svg>
