<?xml version="1.0" encoding="UTF-8" standalone="no"?>
<svg
   xmlns="http://www.w3.org/2000/svg"
   id="svg1455"
   version="1.1"
   height="200"
   width="200">
    <g
       id="text2006"
       style="fill:#000000;fill-opacity:1">
      <path
         id="path2569"
         d="m 50,69 0.516815,-1.59351 h 18.6484 q 11.843672,0 17.528634,2.71327 5.728031,2.71328 9.130395,8.57052 3.402368,5.81416 3.402368,12.48969 0,5.72803 -1.981127,11.15458 -1.938056,5.38349 -4.435994,8.65665 -2.45487,3.23009 -7.57995,7.14927 -5.12508,3.91918 -11.111518,5.81417 -5.986438,1.85192 -14.944561,1.85192 H 35.358606 l 0.559883,-1.59351 q 3.402364,-0.0861 4.565197,-0.60296 1.722716,-0.73215 2.541006,-1.98112 1.248969,-1.80885 2.799414,-7.27847 l 10.336296,-35.31568 q 1.205901,-4.17759 1.205901,-6.54632 0,-1.67965 -1.119766,-2.58407 -1.119765,-0.90443 -4.392925,-0.90443 z m 15.289104,1.63658 -12.661962,43.71392 q -1.421241,4.90974 -1.421241,6.07257 0,0.68909 0.430679,1.3351 0.473747,0.64602 1.248969,0.86136 1.119765,0.38761 3.617704,0.38761 6.76166,0 12.532758,-1.37817 5.814166,-1.42124 9.518006,-4.17758 5.254283,-4.00532 8.39824,-11.02539 3.143956,-7.02006 3.143956,-15.97819 0,-10.12095 -4.823604,-15.03069 -4.823605,-4.95281 -14.083203,-4.95281 -2.282599,0 -5.900302,0.17227 z" />
      <path
         id="path2571"
         d="m 96,118 q 1.85192,0 3.10089,1.29204 1.29203,1.24897 1.29203,3.05782 0,1.80885 -1.29203,3.10089 -1.29204,1.24897 -3.10089,1.24897 -1.80885,0 -3.10089,-1.24897 -1.248969,-1.29204 -1.248969,-3.10089 0,-1.80885 1.248969,-3.05782 1.29204,-1.29204 3.10089,-1.29204 z" />
      <path
         id="path2573"
         d="m 108,127 4.8236,-21.66315 h 1.46431 q -0.30148,3.14396 -0.30148,5.21122 0,5.9003 3.74691,9.60414 3.78998,3.70384 9.86255,3.70384 5.6419,0 8.57051,-3.44544 2.92862,-3.4885 2.92862,-8.01063 0,-2.92861 -1.33511,-5.34041 -2.02419,-3.57464 -10.81004,-12.57583 -4.26372,-4.30679 -5.46962,-6.41712 -1.98112,-3.4885 -1.98112,-7.32154 0,-6.11564 4.56519,-10.4655 4.5652,-4.34986 11.71447,-4.34986 2.4118,0 4.5652,0.47375 1.3351,0.25841 4.86667,1.72271 2.49794,0.99057 2.75635,1.0767 0.60295,0.12921 1.3351,0.12921 1.24897,0 2.1534,-0.64602 0.90442,-0.64602 2.11032,-2.75635 h 1.63658 l -4.47906,19.38056 h -1.46431 q 0.17228,-2.58408 0.17228,-4.17759 0,-5.21122 -3.44544,-8.52744 -3.44543,-3.31623 -9.08732,-3.31623 -4.47906,0 -7.27848,2.62714 -2.79941,2.62714 -2.79941,6.07257 0,3.01476 1.76578,5.7711 1.80885,2.71328 8.22597,8.91506 6.46019,6.15871 8.35517,9.64721 1.89499,3.44543 1.89499,7.36461 0,4.43599 -2.36873,8.61358 -2.32567,4.13452 -6.7186,6.41711 -4.39292,2.2826 -9.60414,2.2826 -2.58407,0 -4.8236,-0.47374 -2.23953,-0.47375 -7.14927,-2.32567 -1.67965,-0.64602 -2.79942,-0.64602 -2.541,0 -3.96224,3.44543 z" />
      <path
         id="path2575"
         d="m 154,118 q 1.85191,0 3.10088,1.29204 1.29204,1.24897 1.29204,3.05782 0,1.80885 -1.29204,3.10089 -1.29203,1.24897 -3.10088,1.24897 -1.80886,0 -3.10089,-1.24897 -1.24897,-1.29204 -1.24897,-3.10089 0,-1.80885 1.24897,-3.05782 1.29203,-1.29204 3.10089,-1.29204 z" />
    </g>
</svg>
