<?xml version="1.0" encoding="UTF-8" standalone="no"?>
<!DOCTYPE svg PUBLIC "-//W3C//DTD SVG 1.1//EN" "http://www.w3.org/Graphics/SVG/1.1/DTD/svg11.dtd">
<svg
   xmlns:svg="http://www.w3.org/2000/svg"
   xmlns="http://www.w3.org/2000/svg"
   version="1.1"
   width="219"
   height="126.5"
   id="svg3261">
  <defs
     id="defs3263" />
  <path
     d="m 10,111.5 199,0 m -199,-24 199,0 m -199,-24 199,0 m -199,-24 199,0 m -199,-24 199,0"
     id="line3175"
     style="fill:none;stroke:#bfbfbf;stroke-width:4;stroke-miterlimit:10" />
  <path
     d="m 183,13.5 14,0 0,99.834 -14,0 z m -9.834,0 2.668,0 0,99.834 -2.668,0 z M 42,13.5 l 2.667,0 0,99.834 -2.667,0 z m -22,0 14,0 0,99.834 -14,0 z"
     id="rect3191" />
  <path
     d="m 166.16701,75.167 c 0,3.037566 -2.46244,5.5 -5.5,5.5 -3.03757,0 -5.5,-2.462434 -5.5,-5.5 0,-3.037566 2.46243,-5.5 5.5,-5.5 3.03756,0 5.5,2.462434 5.5,5.5 z m 0,-25.167 c 0,3.037566 -2.46244,5.5 -5.5,5.5 -3.03757,0 -5.5,-2.462434 -5.5,-5.5 0,-3.037566 2.46243,-5.5 5.5,-5.5 3.03756,0 5.5,2.462434 5.5,5.5 z M 63.5,75.167 c 0,3.037566 -2.462434,5.5 -5.5,5.5 -3.037566,0 -5.5,-2.462434 -5.5,-5.5 0,-3.037566 2.462434,-5.5 5.5,-5.5 3.037566,0 5.5,2.462434 5.5,5.5 z M 63.5,50 c 0,3.037566 -2.462434,5.5 -5.5,5.5 -3.037566,0 -5.5,-2.462434 -5.5,-5.5 0,-3.037566 2.462434,-5.5 5.5,-5.5 3.037566,0 5.5,2.462434 5.5,5.5 z"
     id="circle3199" />
</svg>
