<?xml version="1.0" encoding="UTF-8" standalone="no"?>
<svg
   xmlns="http://www.w3.org/2000/svg"
   version="1.1"
   id="svg2"
   height="200"
   width="200">
  <g
     style="fill:#000000;fill-opacity:1"
     id="g6039">
    <path
       d="m 43.030827,40.972718 h 1.834571 v 93.139742 h -1.834571 z"
       id="path2233" />
    <path
       d="m 10.431917,148.36567 c -3.951383,-6.7738 0.282242,-16.51114 9.313974,-21.73261 9.031733,-5.22147 19.615795,-4.23363 23.567178,2.54017 3.951383,6.7738 -0.282242,16.51114 -9.313974,21.87373 -9.031733,5.22147 -19.615795,4.0925 -23.567178,-2.68129 z"
       id="path2235" />
    <path
       id="path2309"
       d="m 89.901848,111.98974 v 4.29848 H 57.066709 v -4.29848 z" />
    <path
       id="path2307"
       d="m 89.901848,125.01842 v 4.30049 H 57.066709 v -4.30049 z" />
    <path
       id="path2305"
       d="m 110.1867,93.09922 -11.73067,5.90944 v 0.9261 l 1.76401,-0.7056 c 1.21545,-0.47712 2.2151,-0.70558 2.95472,-0.70561 1.30293,3e-5 1.94039,1.00176 1.94041,3.04292 v 29.50307 c -2e-5,2.21487 -0.50039,3.62658 -1.54351,4.23363 -0.8682,0.52223 -2.41568,0.7955 -4.63053,0.8379 v 1.01431 h 17.94881 v -1.01431 c -2.30236,-0.0424 -3.84889,-0.22603 -4.67463,-0.5733 -0.9981,-0.47848 -1.49942,-1.56947 -1.49941,-3.26342 V 93.23152 Z m 29.19437,0 c -3.77892,6e-5 -6.91739,1.32116 -9.39336,4.01313 -0.26113,0.26115 -0.48956,0.53271 -0.7056,0.7938 -1.43415,1.73639 -2.57164,4.46583 -3.43982,8.15855 l 1.36711,0.3087 c 0.91191,-2.21615 1.77784,-3.90014 2.64601,-5.11563 1.65153,-2.21482 3.92577,-3.35158 6.79144,-3.35162 1.86757,4e-5 3.55084,0.41039 5.02743,1.23481 2.78082,1.65024 4.1454,4.33317 4.14543,7.98214 -0.17367,5.21177 -2.99442,10.85325 -8.46725,16.9345 l -11.59837,12.30398 v 0.7938 h 25.40175 l 3.61622,-8.95235 -0.83791,-0.3087 c -0.95569,1.47657 -1.72858,2.47791 -2.29321,2.99881 -0.8682,0.86952 -2.18727,1.27891 -3.92492,1.27891 h -15.56739 l 10.93686,-11.46607 c 0.17362,-0.21604 0.35556,-0.39965 0.5292,-0.5733 5.21304,-5.56032 7.80572,-10.74628 7.80575,-15.52329 -1e-5,-1.95503 -0.45521,-3.72996 -1.36711,-5.38023 l -1.1466,-1.76401 c -2.3461,-2.90936 -5.53073,-4.36587 -9.52566,-4.36593 z m 33.5603,0 c -3.43165,6e-5 -6.34339,1.13717 -8.73186,3.39572 -0.86818,0.82447 -1.68724,1.82618 -2.42551,3.04292 -2.56346,4.34359 -3.83674,9.57605 -3.83672,15.69969 0,1.78013 0.13577,3.60087 0.3969,5.46843 0.82577,5.77772 2.41843,10.09814 4.80693,12.92138 2.47598,2.95314 5.66055,4.41001 9.52565,4.41002 3.34413,-1e-5 6.1649,-1.13712 8.46725,-3.39571 0.82442,-0.78203 1.59902,-1.78204 2.33732,-2.99882 2.60715,-4.29981 3.92489,-9.62491 3.92492,-16.0084 -3e-5,-6.2111 -1.18234,-11.39708 -3.57212,-15.52329 -2.69205,-4.69077 -6.33185,-7.01188 -10.89276,-7.01194 z m -0.22051,1.67581 h 0.0882 l 1.63171,0.2646 c 4.47344,1.43286 6.70322,8.34863 6.70324,20.72712 -2e-5,13.72523 -2.8208,20.59483 -8.46725,20.59483 -5.64651,0 -8.46727,-6.82514 -8.46725,-20.50662 -1e-5,-0.782 -2e-5,-1.5549 0,-2.29322 0.34727,-12.5084 3.16839,-18.78665 8.51135,-18.78671 z" />
  </g>
</svg>
