<?xml version="1.0" encoding="UTF-8" standalone="no"?>
<!-- Created with Inkscape (http://www.inkscape.org/) -->
<!DOCTYPE svg PUBLIC "-//W3C//DTD SVG 1.1//EN" "http://www.w3.org/Graphics/SVG/1.1/DTD/svg11.dtd">
<svg
   xmlns="http://www.w3.org/2000/svg"
   width="200"
   height="200">
  <g style="fill:none;stroke:#000000;stroke-width:4;stroke-linecap:butt;stroke-linejoin:miter;stroke-miterlimit:4;stroke-opacity:0.25;stroke-dasharray:none">
    <path d="m 0,52 200,0" />
    <path d="m 0,76 200,0" />
    <path d="m 0,100 200,0" />
    <path d="m 0,124 200,0" />
    <path d="m 0,148 200,0" />
  </g>
  <path
     style="fill:#000000;fill-opacity:1;stroke:none"
     d="m 118.5,90.4 c 0,-5.5 -5.2,-14.3 -19.1,-14.3 -10.3,0 -20.5,12.4 -20.5,23.2 0,13.816478 7.8,25.8 21,25.8 14.9,0 18.7,-12.4 18.7,-18.5 -0.5,0 -1.2,0 -1.7,0 -0.8,5.2 -5.8,15.5 -14.4,15.5 -9.3,0 -11.7,-8.3 -11.7,-21.7 0,-16.9 5.5,-21.3 12.2,-21.3 5.3,0 8.1,2.8 8.6,3.5 0.2,0.4 0.3,0.9 -0.1,1.3 -4,0 -8.7,2.8 -8.7,8.4 0,3.4 2.4,7.2 7.5,7.2 3.9,0 8.1,-3 8.1,-9 z" />
</svg>
