<?xml version="1.0" encoding="UTF-8" standalone="no"?>
<!-- Created with Inkscape (http://www.inkscape.org/) -->
<!DOCTYPE svg PUBLIC "-//W3C//DTD SVG 1.1//EN" "http://www.w3.org/Graphics/SVG/1.1/DTD/svg11.dtd">
<svg
   xmlns="http://www.w3.org/2000/svg"
   width="200"
   height="200">
  <g style="fill:none;stroke:#000000;stroke-width:4;stroke-linecap:butt;stroke-linejoin:miter;stroke-miterlimit:4;stroke-opacity:0.25;stroke-dasharray:none">
    <path d="m 0,52 200,0" />
    <path d="m 0,76 200,0" />
    <path d="m 0,100 200,0" />
    <path d="m 0,124 200,0" />
    <path d="m 0,148 200,0" />
  </g>
  <path
     style="fill:#000000;fill-opacity:1;stroke:none"
     d="m 84.7,64.9 c 0,-7.2 6.8,-9.9 14.9,-9.9 8.5,0 14.7,4.3 14.6,10 0.1,5.5 -4.3,9.1 -8.8,10.5 5,0.6 9.4,4.1 9.4,9.5 0,8.5 -8,12 -16.6,12 -8.3,0 -14.4,-4.5 -14.4,-8.9 0,-4.7 2.5,-6.6 5.5,-6.6 4,0 5.8,1.4 5.8,5.3 0,2 -0.9,4.6 -1.7,5.7 0.7,0.9 1.8,1.6 4.3,1.6 5,0 7.5,-4 7.5,-7.3 -0.1,-7 -5.5,-9 -13,-11.2 9,-2 12.6,-3.9 12.6,-9.6 0,-4.2 -2.5,-7.9 -7.8,-7.9 -3.18,0 -5,0.9 -4.9,2.4 3,0.2 3.7,2.1 3.7,5.3 0,3.4 -3.8,5.7 -6.1,5.7 -3,0 -5.2,-3.8 -5.214913,-6.452349 z" />
  <path
     style="fill:#000000;fill-opacity:1;stroke:none"
     d="m 95,103.6 14.2,0 C 104.3,112.5 93.3,124.8 87.4,130 l 13.6,0 0,-8 c 2.7,-2.7 8.7,-8.7 10,-10 l 0,18 4.6,0 0,3 -4.6,0 0,4.3 c 0,1.9 1.8,3.7 4.6,3.7 l 0,3.3 -19.5,0 0,-3.3 c 2.9,0 4.9,-1.8 4.9,-3.7 l 0,-4.3 -17,0 0,-3.6 c 4.5,-4.2 6.3,-8.6 7,-9.9 2.4,-5.7 3.1,-10.1 4,-15.9 z" />
</svg>
